%FSLAX24Y24*%
%MOIN*%
G70*
G01*
G75*
G04 Layer_Physical_Order=2*
G04 Layer_Color=16711680*
%ADD10C,0.2362*%
%ADD11C,0.0630*%
%ADD12C,0.0787*%
%ADD13C,0.0627*%
%ADD14R,0.0627X0.0627*%
%ADD15C,0.0591*%
%ADD16R,0.0591X0.0591*%
%ADD17R,0.0787X0.0787*%
%ADD18C,0.0540*%
%ADD19R,0.0540X0.0540*%
%ADD20C,0.0551*%
%ADD21R,0.0394X0.0394*%
%ADD22C,0.0394*%
%ADD23R,0.0591X0.0591*%
%ADD24C,0.0480*%
%ADD25R,0.0540X0.0540*%
%ADD26C,0.0400*%
G36*
X54385Y27726D02*
X54116Y27078D01*
X55482D01*
Y27028D01*
X55532D01*
Y25662D01*
X56152Y25918D01*
X56939Y25494D01*
Y4132D01*
X56152Y3673D01*
X55591Y3905D01*
Y2539D01*
X55541D01*
Y2489D01*
X54175D01*
X54407Y1929D01*
X53949Y1142D01*
X3482D01*
X3058Y1929D01*
X3315Y2548D01*
X1949D01*
Y2598D01*
X1899D01*
Y3964D01*
X1240Y3692D01*
X453Y4092D01*
Y25603D01*
X1240Y26038D01*
X1840Y25790D01*
Y27156D01*
X1890D01*
Y27206D01*
X3256D01*
X3040Y27726D01*
X3521Y28514D01*
X53979D01*
X54385Y27726D01*
D02*
G37*
%LPC*%
G36*
X26498Y7958D02*
X26170Y7822D01*
X26034Y7494D01*
X26498D01*
Y7958D01*
D02*
G37*
G36*
X26598D02*
Y7494D01*
X27062D01*
X26926Y7822D01*
X26598Y7958D01*
D02*
G37*
G36*
X40450Y7810D02*
X40448Y7809D01*
X40445Y7808D01*
X40443Y7807D01*
X40440Y7806D01*
X40391Y7786D01*
X40351Y7769D01*
X40350Y7769D01*
X40350Y7769D01*
X40349Y7768D01*
X40349Y7768D01*
X40348Y7768D01*
X40348Y7768D01*
X40287Y7743D01*
X40251Y7728D01*
X40198Y7706D01*
D01*
Y7706D01*
X40198D01*
X40169Y7637D01*
X40135Y7554D01*
X40093Y7453D01*
X40450D01*
Y7810D01*
D02*
G37*
G36*
X40550D02*
Y7453D01*
X40908D01*
X40850Y7593D01*
X40831Y7637D01*
X40803Y7706D01*
Y7706D01*
X40803Y7706D01*
X40803D01*
X40763Y7722D01*
X40689Y7753D01*
X40669Y7761D01*
X40666Y7763D01*
X40658Y7766D01*
X40652Y7768D01*
X40640Y7773D01*
X40618Y7782D01*
X40616Y7783D01*
X40607Y7787D01*
X40568Y7803D01*
X40567Y7803D01*
X40556Y7808D01*
X40553Y7809D01*
X40550Y7810D01*
D02*
G37*
G36*
X55999Y13903D02*
X55397D01*
X55400Y13896D01*
X55401Y13895D01*
X55402Y13893D01*
X55402Y13891D01*
X55406Y13883D01*
X55406Y13883D01*
X55406Y13883D01*
X55406Y13883D01*
X55406Y13883D01*
X55406Y13883D01*
X55407Y13880D01*
X55407Y13879D01*
X55408Y13878D01*
X55409Y13876D01*
X55409Y13874D01*
X55409Y13874D01*
X55410Y13874D01*
X55410Y13872D01*
X55410Y13872D01*
X55410Y13872D01*
X55411Y13872D01*
X55411Y13871D01*
X55411Y13871D01*
X55411Y13871D01*
X55411Y13870D01*
X55411Y13870D01*
X55411Y13870D01*
Y13870D01*
X55411Y13869D01*
X55411Y13869D01*
X55411Y13869D01*
X55411Y13869D01*
X55412Y13869D01*
X55412Y13869D01*
X55413Y13867D01*
X55413Y13866D01*
X55413Y13866D01*
X55413Y13865D01*
X55414Y13864D01*
X55414Y13864D01*
X55414Y13863D01*
X55414Y13863D01*
X55414Y13862D01*
X55414Y13862D01*
X55415Y13862D01*
X55415Y13862D01*
X55415Y13862D01*
X55415Y13862D01*
X55415Y13861D01*
X55415Y13861D01*
X55415Y13861D01*
X55415Y13861D01*
X55416Y13858D01*
X55416Y13857D01*
X55417Y13857D01*
X55418Y13854D01*
X55418Y13854D01*
X55419Y13852D01*
X55419Y13851D01*
X55419Y13851D01*
X55420Y13849D01*
X55420Y13849D01*
X55420Y13848D01*
X55420Y13848D01*
X55420Y13848D01*
X55421Y13847D01*
X55421Y13847D01*
X55421Y13847D01*
X55421Y13847D01*
X55421Y13847D01*
X55421Y13846D01*
X55421Y13846D01*
X55421Y13846D01*
X55421Y13845D01*
X55421Y13845D01*
X55421Y13845D01*
X55422Y13845D01*
X55422Y13845D01*
X55422Y13844D01*
X55423Y13842D01*
X55423Y13842D01*
X55423Y13841D01*
X55423Y13841D01*
X55424Y13839D01*
X55424Y13839D01*
X55425Y13837D01*
X55425Y13837D01*
X55425Y13837D01*
X55425Y13836D01*
X55426Y13835D01*
X55426Y13835D01*
X55426Y13835D01*
X55426Y13835D01*
X55426Y13835D01*
X55426Y13834D01*
X55426Y13834D01*
X55426Y13834D01*
X55426Y13834D01*
X55426Y13834D01*
X55426Y13834D01*
X55426Y13834D01*
X55426Y13834D01*
X55426Y13834D01*
X55426Y13834D01*
X55426Y13834D01*
X55426Y13834D01*
X55426Y13834D01*
X55426Y13834D01*
X55426Y13834D01*
X55426Y13834D01*
X55426Y13834D01*
X55426Y13834D01*
X55426Y13834D01*
X55426Y13834D01*
X55426Y13834D01*
X55426Y13834D01*
X55426Y13834D01*
X55426Y13833D01*
X55426Y13833D01*
X55426Y13833D01*
X55426Y13833D01*
X55426Y13833D01*
X55426Y13833D01*
X55427Y13833D01*
X55427Y13833D01*
X55427Y13833D01*
X55427Y13833D01*
X55427Y13833D01*
X55427Y13833D01*
X55427Y13833D01*
X55429Y13828D01*
X55429Y13828D01*
X55429Y13827D01*
X55429Y13826D01*
X55430Y13823D01*
X55431Y13823D01*
X55431Y13823D01*
X55431Y13822D01*
X55431Y13822D01*
X55431Y13822D01*
X55431Y13822D01*
X55431Y13821D01*
X55431Y13821D01*
X55431Y13821D01*
X55432Y13821D01*
X55432Y13821D01*
X55432Y13821D01*
X55432Y13821D01*
X55432Y13820D01*
X55432Y13820D01*
X55432Y13820D01*
X55432Y13820D01*
X55432Y13820D01*
X55432Y13819D01*
X55432Y13819D01*
X55432Y13819D01*
X55432Y13819D01*
X55433Y13817D01*
X55433Y13817D01*
X55433Y13817D01*
X55433Y13816D01*
X55434Y13815D01*
X55434Y13815D01*
X55435Y13813D01*
X55435Y13813D01*
X55435Y13813D01*
X55435Y13812D01*
X55436Y13811D01*
X55436Y13811D01*
X55435Y13810D01*
X55435Y13810D01*
X55435Y13810D01*
X55432Y13805D01*
X55429Y13799D01*
X55401Y13750D01*
Y13750D01*
Y13745D01*
Y13743D01*
Y13742D01*
Y13741D01*
Y13734D01*
Y13730D01*
X55401Y13729D01*
Y13728D01*
Y13728D01*
Y13728D01*
Y13726D01*
X55401Y13726D01*
X55401Y13724D01*
Y13724D01*
Y13724D01*
Y13723D01*
Y13721D01*
Y13720D01*
Y13720D01*
X55401Y13720D01*
X55401Y13718D01*
Y13717D01*
Y13716D01*
Y13716D01*
Y13713D01*
Y13711D01*
X55401Y13710D01*
X55401Y13705D01*
Y13703D01*
Y13702D01*
Y13701D01*
Y13693D01*
Y13693D01*
X55401Y13689D01*
X55401Y13688D01*
Y13688D01*
Y13688D01*
Y13688D01*
X55401Y13687D01*
Y13686D01*
X55401Y13684D01*
Y13684D01*
Y13683D01*
Y13683D01*
Y13679D01*
X55401Y13677D01*
X55401Y13677D01*
Y13677D01*
Y13677D01*
Y13677D01*
Y13676D01*
Y13675D01*
Y13675D01*
Y13675D01*
Y13674D01*
Y13674D01*
Y13673D01*
Y13673D01*
Y13671D01*
Y13671D01*
Y13671D01*
Y13671D01*
Y13669D01*
Y13667D01*
Y13666D01*
Y13666D01*
Y13666D01*
Y13666D01*
Y13664D01*
Y13663D01*
Y13662D01*
Y13661D01*
Y13661D01*
Y13660D01*
Y13657D01*
X55401Y13655D01*
X55401Y13654D01*
Y13653D01*
Y13653D01*
Y13653D01*
Y13651D01*
Y13649D01*
Y13649D01*
Y13649D01*
Y13649D01*
Y13649D01*
Y13648D01*
Y13648D01*
Y13648D01*
Y13648D01*
Y13647D01*
Y13647D01*
Y13647D01*
Y13646D01*
Y13645D01*
Y13645D01*
Y13645D01*
Y13645D01*
Y13644D01*
Y13643D01*
Y13643D01*
Y13642D01*
Y13642D01*
Y13642D01*
Y13642D01*
Y13641D01*
Y13641D01*
Y13641D01*
Y13639D01*
Y13639D01*
Y13639D01*
Y13638D01*
Y13636D01*
X55401Y13635D01*
Y13634D01*
X55401Y13627D01*
Y13627D01*
Y13625D01*
Y13624D01*
Y13615D01*
Y13614D01*
Y13608D01*
Y13608D01*
Y13607D01*
Y13601D01*
Y13601D01*
Y13594D01*
Y13588D01*
Y13588D01*
Y13588D01*
Y13587D01*
Y13587D01*
Y13584D01*
Y13583D01*
Y13579D01*
Y13576D01*
Y13571D01*
Y13564D01*
Y13557D01*
Y13540D01*
X55401Y13520D01*
X55401Y13520D01*
X55401Y13520D01*
X55401Y13519D01*
X55400Y13518D01*
X55400Y13518D01*
X55400Y13518D01*
X55400Y13517D01*
X55400Y13517D01*
X55400Y13517D01*
X55400Y13517D01*
X55399Y13516D01*
X55399Y13515D01*
X55399Y13515D01*
X55398Y13514D01*
X55398Y13512D01*
X55396Y13508D01*
D01*
X55396Y13508D01*
X55396Y13508D01*
X55396Y13508D01*
X55396Y13507D01*
X55395Y13506D01*
X55395Y13506D01*
X55395Y13506D01*
X55395Y13506D01*
X55395Y13506D01*
X55395Y13505D01*
X55395Y13505D01*
X55395Y13505D01*
X55395Y13505D01*
X55395Y13505D01*
X55394Y13504D01*
X55394Y13504D01*
X55394Y13504D01*
X55394Y13503D01*
X55393Y13501D01*
X55392Y13498D01*
X55392Y13498D01*
X55391Y13497D01*
X55390Y13494D01*
X55389Y13490D01*
X55389Y13490D01*
X55388Y13490D01*
X55388Y13488D01*
X55387Y13486D01*
X55387Y13486D01*
X55387Y13485D01*
X55386Y13484D01*
X55385Y13482D01*
X55385Y13482D01*
X55384Y13480D01*
X55383Y13476D01*
X55380Y13468D01*
X55373Y13453D01*
X55373Y13453D01*
D01*
Y13453D01*
Y13453D01*
Y13453D01*
Y13453D01*
Y13453D01*
Y13452D01*
X55373Y13451D01*
X55373Y13449D01*
Y13449D01*
X55373Y13448D01*
Y13446D01*
Y13445D01*
Y13445D01*
Y13445D01*
Y13444D01*
Y13443D01*
Y13442D01*
Y13442D01*
Y13442D01*
Y13438D01*
Y13434D01*
X55373Y13429D01*
X55373Y13429D01*
Y13429D01*
X55373Y13428D01*
X55373Y13428D01*
Y13428D01*
X55373Y13427D01*
X55373Y13418D01*
Y13409D01*
Y13394D01*
Y13393D01*
Y13392D01*
Y13391D01*
Y13389D01*
Y13389D01*
Y13388D01*
Y13382D01*
Y13361D01*
Y13330D01*
Y13330D01*
Y13330D01*
Y13329D01*
Y13329D01*
Y13328D01*
Y13327D01*
Y13327D01*
Y13326D01*
Y13325D01*
Y13325D01*
Y13325D01*
Y13323D01*
Y13292D01*
Y13248D01*
Y13195D01*
Y13177D01*
Y11225D01*
Y11179D01*
Y11168D01*
Y11162D01*
Y11162D01*
Y11130D01*
Y11114D01*
Y11108D01*
Y11106D01*
X55373Y11106D01*
X55373Y11106D01*
Y11083D01*
X55373Y11075D01*
Y11071D01*
Y11070D01*
X55373Y11069D01*
Y11069D01*
Y11069D01*
Y11069D01*
X55373Y11069D01*
X55373Y11068D01*
Y11042D01*
Y11036D01*
X55373Y11026D01*
X55373Y11022D01*
Y11022D01*
Y11022D01*
Y11021D01*
X55373Y11020D01*
Y11019D01*
Y11008D01*
Y11007D01*
Y11007D01*
Y11005D01*
Y11000D01*
X55369Y10996D01*
X55368Y10994D01*
X55368Y10994D01*
X55367Y10993D01*
X55359Y10985D01*
X55358Y10984D01*
X55357Y10984D01*
X55357Y10984D01*
X55357Y10984D01*
X55355Y10982D01*
X55355Y10981D01*
X55355Y10981D01*
X55355Y10981D01*
X55355Y10981D01*
X55354Y10981D01*
X55347Y10974D01*
X55343Y10970D01*
X55343Y10970D01*
X55343Y10969D01*
X55325Y10952D01*
X55325Y10952D01*
X55325Y10951D01*
X55325Y10951D01*
X55325Y10951D01*
X55323Y10950D01*
X55323Y10950D01*
X55320Y10946D01*
X55315Y10941D01*
X55315Y10941D01*
X55315Y10941D01*
X55299Y10926D01*
X55299Y10926D01*
X55299Y10926D01*
X55298Y10924D01*
X55297Y10924D01*
X55297Y10924D01*
X55294Y10921D01*
X55294Y10921D01*
X55286Y10913D01*
X55280Y10906D01*
X55251Y10877D01*
X55249Y10875D01*
X55241Y10868D01*
X55206Y10833D01*
X51768Y7395D01*
X51733Y7360D01*
X51726Y7353D01*
X51724Y7351D01*
X51695Y7321D01*
X51688Y7315D01*
X51681Y7307D01*
X51681Y7307D01*
X51677Y7304D01*
X51677Y7304D01*
X51677Y7303D01*
X51675Y7302D01*
X51675Y7302D01*
X51675Y7302D01*
X51660Y7287D01*
X51660Y7287D01*
X51660Y7286D01*
X51655Y7282D01*
X51652Y7278D01*
X51652Y7278D01*
X51650Y7277D01*
X51650Y7277D01*
X51650Y7277D01*
X51650Y7276D01*
X51649Y7276D01*
X51632Y7259D01*
X51631Y7258D01*
X51631Y7258D01*
X51628Y7254D01*
X51620Y7247D01*
X51620Y7246D01*
X51620Y7246D01*
X51620Y7246D01*
X51620Y7246D01*
X51619Y7246D01*
X51618Y7244D01*
X51618Y7244D01*
X51618Y7244D01*
X51617Y7244D01*
X51616Y7243D01*
X51608Y7235D01*
X51607Y7234D01*
X51607Y7234D01*
X51606Y7232D01*
X51601Y7228D01*
X51596D01*
X51594D01*
X51594D01*
X51594D01*
X51593D01*
X51582D01*
X51581D01*
X51580Y7228D01*
X51580D01*
X51580D01*
X51579D01*
X51575Y7228D01*
X51565Y7228D01*
X51559D01*
X51533Y7228D01*
X51533D01*
X51533Y7228D01*
X51533Y7228D01*
X51533Y7228D01*
X51533D01*
X51533Y7228D01*
X51533Y7228D01*
X51533D01*
X51533Y7228D01*
X51532D01*
X51532Y7228D01*
X51532D01*
X51532D01*
X51531Y7228D01*
X51530D01*
X51526D01*
X51518Y7228D01*
X51495Y7228D01*
X51495D01*
X51495Y7228D01*
X51492D01*
X51486D01*
X51472D01*
X51442D01*
X51442D01*
X51436D01*
X51425D01*
X51380D01*
X50181D01*
X50164D01*
X50137D01*
X50124D01*
X50114D01*
X50105D01*
D01*
X50091D01*
X50090D01*
X50085D01*
X50085D01*
X50041D01*
X50038D01*
X50018D01*
D01*
X50017D01*
X50017D01*
X50017D01*
X50017D01*
X50017D01*
X50017D01*
X50017D01*
D01*
X50017D01*
X50017D01*
X50017Y7228D01*
X50017Y7228D01*
X49994D01*
X49991D01*
X49979D01*
X49979D01*
X49977D01*
X49977D01*
X49977D01*
X49976D01*
X49976D01*
X49967D01*
X49966D01*
X49965D01*
X49960Y7228D01*
X49960Y7228D01*
X49955D01*
X49955D01*
X49954D01*
X49954D01*
X49951D01*
D01*
X49950D01*
X49950D01*
X49950D01*
X49950D01*
X49950D01*
X49950D01*
X49948D01*
X49947D01*
X49947D01*
X49947D01*
X49946Y7228D01*
X49923Y7237D01*
X49921Y7238D01*
X49917Y7240D01*
X49917Y7240D01*
X49897Y7248D01*
X49895Y7249D01*
X49895Y7249D01*
X49894Y7249D01*
X49894Y7249D01*
X49894Y7249D01*
X49892Y7250D01*
X49889Y7251D01*
X49879Y7255D01*
X49874Y7257D01*
X49870Y7259D01*
X49865Y7261D01*
X49852Y7267D01*
X49851Y7267D01*
X49851Y7267D01*
X49851Y7267D01*
X49851Y7267D01*
X49851Y7267D01*
X49849Y7268D01*
X49849Y7268D01*
X49849Y7268D01*
X49849Y7268D01*
X49849Y7268D01*
X49849Y7268D01*
X49848Y7268D01*
X49848Y7268D01*
X49848Y7268D01*
X49848Y7268D01*
X49848Y7268D01*
X49847Y7269D01*
X49846Y7269D01*
X49846Y7269D01*
X49846Y7269D01*
X49844Y7270D01*
X49844Y7270D01*
X49844Y7270D01*
X49844Y7270D01*
X49844Y7270D01*
X49844Y7270D01*
X49843Y7271D01*
X49840Y7272D01*
X49838Y7272D01*
X49838Y7272D01*
X49838Y7272D01*
X49834Y7274D01*
X49834Y7274D01*
X49826Y7278D01*
X49822Y7279D01*
X49820Y7280D01*
X49814Y7282D01*
X49814Y7282D01*
X49814Y7283D01*
X49796Y7290D01*
X49796Y7290D01*
X49796Y7290D01*
X49774Y7299D01*
X49768Y7302D01*
X49748Y7310D01*
X49461Y7191D01*
X49453Y7173D01*
X49450Y7164D01*
X49441Y7142D01*
X49441Y7142D01*
X49441Y7142D01*
X49435Y7129D01*
X49433Y7124D01*
X49431Y7119D01*
X49430Y7117D01*
X49428Y7113D01*
X49425Y7105D01*
X49425Y7105D01*
X49423Y7100D01*
X49423Y7099D01*
X49421Y7096D01*
X49421Y7095D01*
X49421Y7095D01*
X49421Y7095D01*
X49421Y7094D01*
X49421Y7094D01*
X49420Y7093D01*
X49420Y7092D01*
X49420Y7092D01*
X49420Y7092D01*
X49419Y7091D01*
X49419Y7090D01*
X49419Y7090D01*
X49419Y7090D01*
X49419Y7090D01*
X49419Y7090D01*
X49419Y7090D01*
X49419Y7090D01*
X49419Y7089D01*
X49418Y7088D01*
X49418Y7088D01*
X49418Y7087D01*
X49417Y7086D01*
Y7086D01*
X49410Y7069D01*
X49408Y7064D01*
X49406Y7059D01*
X49402Y7050D01*
X49401Y7047D01*
X49400Y7044D01*
X49400Y7044D01*
X49400Y7043D01*
X49399Y7042D01*
X49390Y7021D01*
X49389Y7017D01*
X49388Y7016D01*
X49379Y6993D01*
X49378Y6992D01*
X49378Y6992D01*
X49377Y6992D01*
X49377Y6992D01*
X49376Y6990D01*
X49376Y6990D01*
X49375Y6990D01*
X49375Y6990D01*
X49375Y6990D01*
X49375Y6989D01*
X49374Y6988D01*
X49373Y6987D01*
X49372Y6987D01*
X49372Y6987D01*
X49369Y6983D01*
X49364Y6979D01*
X49364Y6978D01*
X49358Y6972D01*
X49357Y6971D01*
X49357Y6971D01*
X49355Y6969D01*
X49355Y6969D01*
X49348Y6962D01*
X49345Y6959D01*
X49329Y6943D01*
X49329Y6943D01*
X49329Y6943D01*
X49329Y6943D01*
X49329Y6943D01*
X49329Y6943D01*
X49329Y6943D01*
X49329Y6943D01*
X49328Y6943D01*
X49328Y6943D01*
X49328Y6943D01*
X49328Y6943D01*
X49328Y6943D01*
X49328Y6942D01*
X49312Y6926D01*
X49280Y6895D01*
X49276Y6890D01*
X49266Y6881D01*
X49263Y6877D01*
X49253Y6867D01*
X49244Y6858D01*
X49225Y6839D01*
X49212Y6827D01*
X48569Y6183D01*
X48538Y6152D01*
X48529Y6144D01*
X48525Y6139D01*
X48525Y6139D01*
X48505Y6119D01*
X48495Y6110D01*
X48491Y6105D01*
X48489Y6103D01*
X48489Y6103D01*
X48489Y6103D01*
X48473Y6087D01*
X48467Y6081D01*
X48464Y6078D01*
X48464Y6078D01*
X48463Y6077D01*
X48463Y6077D01*
X48463Y6077D01*
X48463Y6077D01*
X48462Y6077D01*
X48462Y6077D01*
Y6077D01*
X48462Y6077D01*
X48462Y6077D01*
X48462Y6076D01*
X48462Y6076D01*
X48462Y6076D01*
X48462Y6076D01*
X48462Y6076D01*
X48462Y6076D01*
X48443Y6058D01*
X48439Y6053D01*
X48432Y6046D01*
X48429Y6043D01*
X48429Y6043D01*
X48429Y6043D01*
X48429Y6043D01*
X48428Y6042D01*
X48427Y6041D01*
X48419Y6033D01*
X48419Y6033D01*
X48419Y6033D01*
X48419Y6033D01*
X48417Y6031D01*
X48414Y6028D01*
X48407D01*
X48405D01*
X48405D01*
X48404D01*
X48392D01*
X48391Y6028D01*
X48390D01*
X48390D01*
X48390D01*
X48388Y6028D01*
X48388Y6028D01*
X48387D01*
X48387D01*
X48387D01*
X48387Y6028D01*
X48376Y6028D01*
X48371D01*
X48371D01*
X48370D01*
X48346Y6028D01*
X48345D01*
X48345Y6028D01*
X48344D01*
X48344D01*
X48342Y6028D01*
X48342D01*
X48337D01*
X48331Y6028D01*
X48330D01*
X48330D01*
X48309Y6028D01*
X48309Y6028D01*
X48309D01*
X48307D01*
X48307D01*
X48307D01*
X48301D01*
X48301D01*
X48290D01*
X48281D01*
X48240D01*
X48237D01*
X48227D01*
X48177D01*
X45119D01*
X45069D01*
X45059D01*
X45056D01*
X45015D01*
X45004D01*
X44995D01*
X44991D01*
X44989Y6028D01*
X44989Y6028D01*
X44965D01*
X44954Y6028D01*
X44952D01*
X44952D01*
X44951Y6028D01*
X44951D01*
X44951Y6028D01*
X44950Y6028D01*
X44926D01*
X44925D01*
X44918D01*
X44910Y6028D01*
X44909Y6028D01*
X44909D01*
X44909D01*
X44909Y6028D01*
X44904Y6028D01*
X44903D01*
X44901Y6028D01*
X44899D01*
X44890D01*
X44889D01*
X44887D01*
X44883D01*
X44879Y6031D01*
X44877Y6033D01*
X44876Y6034D01*
X44869Y6041D01*
X44868Y6042D01*
X44868Y6043D01*
X44867Y6043D01*
X44865Y6046D01*
X44864Y6046D01*
X44864Y6047D01*
X44863Y6047D01*
X44862Y6048D01*
X44856Y6055D01*
X44852Y6059D01*
X44851Y6060D01*
X44835Y6075D01*
X44835Y6076D01*
X44834Y6076D01*
X44834Y6076D01*
X44833Y6077D01*
X44833Y6077D01*
X44830Y6080D01*
X44824Y6086D01*
X44824Y6086D01*
X44808Y6102D01*
X44808Y6102D01*
X44808Y6102D01*
X44807Y6104D01*
X44807Y6104D01*
X44804Y6106D01*
X44804Y6106D01*
X44800Y6110D01*
X44786Y6125D01*
X44748Y6163D01*
X44748Y6163D01*
X44747Y6163D01*
X44742Y6169D01*
X44741Y6170D01*
X44707Y6203D01*
X43960Y6951D01*
X43957Y6953D01*
X43876Y7159D01*
X43831Y7275D01*
X43831D01*
X43691Y7630D01*
X43691Y7710D01*
D01*
Y7798D01*
Y7798D01*
Y7798D01*
X43691D01*
X43691Y7798D01*
X43675Y7802D01*
X43672Y7835D01*
Y7835D01*
X43669Y7877D01*
X43665Y7920D01*
X43664Y7932D01*
X43662Y7958D01*
X43633Y8277D01*
X43623Y8389D01*
Y8534D01*
Y11427D01*
Y11471D01*
Y11489D01*
Y11491D01*
Y11531D01*
Y11534D01*
Y11538D01*
Y11550D01*
Y11554D01*
Y11554D01*
Y11556D01*
Y11565D01*
Y11565D01*
Y11569D01*
Y11591D01*
Y11604D01*
Y11605D01*
Y11617D01*
X43623Y11625D01*
Y11625D01*
X43623D01*
Y11641D01*
X43623Y11652D01*
Y11653D01*
X43623Y11653D01*
X43623Y11662D01*
Y11670D01*
Y11670D01*
X43627Y11680D01*
X43629Y11686D01*
X43634Y11696D01*
X43634Y11697D01*
Y11697D01*
X43637Y11704D01*
X43638Y11708D01*
X43640Y11712D01*
X43642Y11717D01*
X43645Y11725D01*
X43647Y11730D01*
X43650Y11736D01*
X43652Y11742D01*
X43653Y11742D01*
X43654Y11745D01*
X43654Y11747D01*
X43656Y11751D01*
X43657Y11752D01*
X43657Y11754D01*
X43658Y11755D01*
X43659Y11757D01*
X43659Y11758D01*
X43660Y11759D01*
X43660Y11760D01*
X43660Y11760D01*
X43660Y11761D01*
X43661Y11764D01*
X43662Y11765D01*
X43663Y11768D01*
X43664Y11770D01*
X43664Y11771D01*
X43665Y11771D01*
X43666Y11774D01*
X43666Y11774D01*
X43666Y11774D01*
X43666Y11775D01*
X43666Y11776D01*
X43666Y11776D01*
X43667Y11776D01*
X43667Y11776D01*
X43667Y11776D01*
X43667Y11776D01*
X43667Y11776D01*
X43667Y11776D01*
X43667Y11777D01*
X43667Y11778D01*
X43668Y11778D01*
X43668Y11780D01*
X43669Y11781D01*
X43669Y11781D01*
X43669Y11782D01*
X43669Y11782D01*
X43669Y11783D01*
X43669Y11783D01*
X43670Y11783D01*
X43670Y11785D01*
X43671Y11786D01*
X43672Y11788D01*
X43672Y11790D01*
X43672Y11790D01*
X43673Y11790D01*
X43673Y11791D01*
X43673Y11791D01*
X43673Y11792D01*
X43673Y11793D01*
X43674Y11794D01*
X43674Y11794D01*
X43674Y11795D01*
X43676Y11799D01*
X43677Y11800D01*
X43677Y11802D01*
X43680Y11808D01*
X43681Y11812D01*
X43681Y11812D01*
X43683Y11816D01*
X43683Y11816D01*
X43683Y11817D01*
X43685Y11821D01*
X43687Y11824D01*
X43687Y11824D01*
X43687Y11826D01*
X43688Y11827D01*
X43688Y11827D01*
X43689Y11830D01*
X43690Y11831D01*
X43690Y11832D01*
X43693Y11839D01*
X43693Y11839D01*
X43696Y11847D01*
X43699Y11853D01*
Y11853D01*
D01*
X43699Y11853D01*
D01*
Y11853D01*
Y11853D01*
X43664Y11937D01*
X43657Y11953D01*
X43657Y11953D01*
X43625Y12030D01*
X43615Y12055D01*
X43613Y12059D01*
X43613Y12059D01*
X43601Y12088D01*
X43592Y12110D01*
X43583Y12133D01*
X43581Y12136D01*
X43581Y12136D01*
Y12136D01*
X43581Y12136D01*
X43580Y12137D01*
X43359Y12228D01*
X43331Y12240D01*
X43323Y12243D01*
X43318Y12245D01*
X43317Y12246D01*
X43298Y12254D01*
D01*
X43298D01*
D01*
X43298D01*
Y12254D01*
X43292Y12251D01*
X43290Y12250D01*
X43289Y12250D01*
X43288Y12249D01*
X43285Y12248D01*
X43281Y12247D01*
X43198Y12212D01*
X43174Y12202D01*
X43099Y12171D01*
X43015Y12136D01*
X43015Y12136D01*
Y12136D01*
X42997Y12093D01*
X42971Y12031D01*
X42961Y12005D01*
X42954Y11990D01*
X42951Y11982D01*
X42949Y11978D01*
X42943Y11964D01*
X42898Y11853D01*
D01*
X42898Y11853D01*
Y11853D01*
Y11853D01*
X42902Y11842D01*
X42903Y11840D01*
X42907Y11832D01*
X42907Y11831D01*
X42908Y11828D01*
X42908Y11827D01*
X42908Y11827D01*
X42909Y11826D01*
X42909Y11824D01*
X42910Y11824D01*
X42912Y11818D01*
X42912Y11817D01*
X42913Y11817D01*
X42913Y11816D01*
X42915Y11812D01*
X42915Y11812D01*
X42916Y11809D01*
X42918Y11803D01*
X42919Y11801D01*
X42919Y11800D01*
X42920Y11799D01*
X42922Y11795D01*
X42922Y11794D01*
X42922Y11794D01*
X42923Y11793D01*
X42923Y11792D01*
X42923Y11792D01*
X42923Y11791D01*
X42923Y11791D01*
X42923Y11790D01*
X42924Y11790D01*
X42924Y11790D01*
X42924Y11790D01*
X42925Y11786D01*
X42926Y11785D01*
X42926Y11785D01*
X42927Y11783D01*
X42927Y11783D01*
X42927Y11782D01*
X42927Y11782D01*
X42927Y11782D01*
X42927Y11781D01*
X42927Y11781D01*
X42928Y11779D01*
X42929Y11778D01*
X42929Y11778D01*
X42929Y11777D01*
X42929Y11776D01*
X42929Y11776D01*
X42929Y11776D01*
X42929Y11776D01*
X42929Y11776D01*
X42930Y11776D01*
X42930Y11776D01*
X42930Y11775D01*
X42930Y11775D01*
X42930Y11774D01*
X42930Y11774D01*
X42931Y11773D01*
X42931Y11772D01*
X42932Y11771D01*
X42932Y11770D01*
X42934Y11765D01*
X42934Y11764D01*
X42936Y11761D01*
X42936Y11760D01*
X42936Y11759D01*
X42937Y11758D01*
X42938Y11755D01*
X42938Y11754D01*
X42940Y11752D01*
X42940Y11750D01*
X42941Y11747D01*
X42942Y11746D01*
X42944Y11742D01*
X42944Y11742D01*
X42948Y11730D01*
X42950Y11726D01*
X42954Y11717D01*
X42955Y11714D01*
X42958Y11708D01*
X42959Y11705D01*
X42959Y11705D01*
X42962Y11697D01*
X42964Y11694D01*
X42967Y11686D01*
X42968Y11683D01*
X42969Y11682D01*
X42973Y11670D01*
Y11669D01*
Y11664D01*
Y11663D01*
Y11663D01*
Y11653D01*
Y11651D01*
X42973Y11642D01*
Y11641D01*
X42973Y11625D01*
Y11624D01*
X42973Y11617D01*
Y11617D01*
Y11605D01*
Y11603D01*
Y11592D01*
Y11569D01*
Y11565D01*
Y11565D01*
Y11556D01*
Y11554D01*
Y11554D01*
Y11550D01*
Y11538D01*
Y11534D01*
Y11531D01*
Y11491D01*
Y11489D01*
Y11471D01*
Y11427D01*
Y8527D01*
Y8399D01*
X42961Y8274D01*
X42932Y7971D01*
X42930Y7946D01*
X42929Y7936D01*
X42924Y7889D01*
X42919Y7836D01*
D01*
X42916Y7802D01*
X42900Y7798D01*
X42900Y7798D01*
X42900D01*
X42900Y7798D01*
X42900D01*
X42900D01*
Y7798D01*
X42900Y7641D01*
X42900Y7641D01*
Y7641D01*
D01*
X42900D01*
X42900Y7641D01*
Y7008D01*
X42991D01*
X42991D01*
X43030Y7008D01*
X43032D01*
X43037Y6996D01*
X43040Y6988D01*
X43043Y6981D01*
X43046Y6975D01*
X43051Y6962D01*
X43056Y6951D01*
X43061Y6939D01*
X43066Y6926D01*
X43066Y6926D01*
X43140Y6852D01*
X43158Y6834D01*
X43158Y6834D01*
X43290Y6702D01*
X43291Y6701D01*
X43311Y6681D01*
X43314Y6678D01*
X43580Y6412D01*
X44256Y5736D01*
X44293Y5699D01*
X44307Y5685D01*
X44314Y5678D01*
X44331Y5661D01*
X44332Y5660D01*
X44353Y5639D01*
X44365Y5627D01*
X44369Y5623D01*
X44372Y5620D01*
X44372Y5620D01*
X44426Y5566D01*
X44467Y5525D01*
X44487Y5505D01*
X44492Y5500D01*
X44504Y5488D01*
X44518Y5474D01*
X44518Y5474D01*
D01*
X44518D01*
Y5474D01*
X44518D01*
X44543Y5463D01*
X44556Y5458D01*
X44585Y5446D01*
X44591Y5443D01*
X44610Y5436D01*
X44631Y5427D01*
X44633Y5426D01*
X44633Y5426D01*
X44657Y5416D01*
X44667Y5412D01*
X44682Y5406D01*
X44712Y5394D01*
X44712Y5393D01*
X44714Y5392D01*
X44748Y5378D01*
X44748D01*
X44748D01*
X44748D01*
X44750D01*
X44785D01*
X44818D01*
X44870D01*
X44940D01*
X44940D01*
X44942D01*
X44947D01*
X44957D01*
X44957D01*
X44974D01*
X45006D01*
X45007D01*
X45031D01*
X45050D01*
X45058D01*
X45098D01*
X48198D01*
X48232D01*
X48253D01*
X48261D01*
X48289D01*
X48290D01*
X48323D01*
X48340D01*
X48340D01*
X48350D01*
X48353D01*
X48356D01*
X48427D01*
X48477D01*
X48478D01*
X48512D01*
X48516D01*
X48548Y5378D01*
X48548Y5378D01*
X48548D01*
D01*
X48548D01*
X48548D01*
X48548Y5378D01*
X48582Y5392D01*
X48584Y5393D01*
X48586Y5394D01*
X48614Y5406D01*
X48629Y5412D01*
X48639Y5416D01*
X48641Y5417D01*
X48650Y5420D01*
X48663Y5426D01*
X48663Y5426D01*
X48665Y5427D01*
X48687Y5436D01*
X48688Y5436D01*
X48712Y5446D01*
X48740Y5458D01*
X48741Y5458D01*
X48778Y5474D01*
X48778D01*
X48778Y5474D01*
X48778Y5474D01*
X48790Y5486D01*
X48801Y5497D01*
X48823Y5519D01*
X48855Y5551D01*
X48898Y5594D01*
X48902Y5598D01*
X48902Y5598D01*
X48906Y5602D01*
X48919Y5615D01*
X48919Y5615D01*
X48930Y5625D01*
X48951Y5647D01*
X48953Y5649D01*
X48974Y5670D01*
X48989Y5685D01*
X48993Y5689D01*
X49012Y5707D01*
X49669Y6365D01*
X49706Y6402D01*
X49714Y6410D01*
X49744Y6440D01*
X49748Y6444D01*
X49757Y6453D01*
X49760Y6456D01*
X49761Y6456D01*
X49761Y6457D01*
X49762Y6457D01*
X49791Y6487D01*
X49806Y6502D01*
X49807Y6503D01*
X49808Y6503D01*
X49815Y6511D01*
X49816Y6511D01*
X49819Y6515D01*
X49820Y6516D01*
X49820Y6516D01*
X49823Y6519D01*
X49823Y6519D01*
X49824Y6520D01*
X49825Y6521D01*
X49825Y6521D01*
X49825Y6521D01*
X49825Y6521D01*
X49826Y6521D01*
X49826Y6521D01*
X49826Y6521D01*
X49826Y6522D01*
X49827Y6522D01*
X49827Y6523D01*
X49827Y6523D01*
X49827Y6523D01*
X49827Y6523D01*
X49827D01*
X49827Y6523D01*
X49827D01*
X49829Y6524D01*
X49829Y6525D01*
X49829Y6525D01*
X49829Y6525D01*
X49829Y6525D01*
X49830Y6526D01*
X49830Y6526D01*
X49830Y6526D01*
X49830Y6526D01*
X49830Y6526D01*
X49830Y6526D01*
X49830Y6526D01*
X49830Y6526D01*
X49831Y6526D01*
X49831Y6527D01*
X49831Y6527D01*
X49831Y6527D01*
X49831Y6527D01*
X49831Y6527D01*
X49831Y6527D01*
X49831D01*
X49831Y6527D01*
X49831Y6527D01*
X49831Y6527D01*
X49831Y6527D01*
X49831Y6527D01*
X49834Y6529D01*
X49834Y6529D01*
X49834Y6530D01*
X49834Y6530D01*
X49835Y6530D01*
X49835Y6530D01*
X49835Y6531D01*
X49836Y6532D01*
X49836Y6532D01*
X49836Y6532D01*
X49836Y6532D01*
X49837Y6532D01*
X49837Y6533D01*
X49837Y6533D01*
X49837Y6533D01*
X49838Y6533D01*
X49838Y6534D01*
X49838Y6534D01*
X49838Y6534D01*
X49846Y6537D01*
X49851Y6539D01*
X49858Y6542D01*
X49858Y6542D01*
X49862Y6544D01*
X49864Y6545D01*
X49864Y6545D01*
X49867Y6546D01*
X49874Y6549D01*
X49878Y6551D01*
X49885Y6553D01*
X49887Y6554D01*
X49889Y6555D01*
X49891Y6556D01*
X49891Y6556D01*
X49892Y6556D01*
X49893Y6557D01*
X49895Y6557D01*
X49896Y6558D01*
X49898Y6559D01*
X49905Y6562D01*
X49910Y6564D01*
X49917Y6567D01*
X49919Y6568D01*
X49920Y6568D01*
X49922Y6569D01*
X49925Y6570D01*
X49925Y6570D01*
X49932Y6573D01*
X49938Y6575D01*
X49946Y6578D01*
X49946D01*
X49946D01*
X49946D01*
X49946D01*
X49946D01*
X49947D01*
X49948D01*
X49948D01*
X49948Y6578D01*
X49948D01*
X49948D01*
X49949Y6578D01*
X49950D01*
X49951Y6578D01*
X49951D01*
X49952D01*
X49952D01*
X49955Y6578D01*
X49955D01*
X49955D01*
X49955D01*
X49955D01*
X49956Y6578D01*
X49956D01*
X49956Y6578D01*
X49956D01*
X49956D01*
X49956Y6578D01*
X49956D01*
X49956D01*
X49956D01*
X49956Y6578D01*
X49956D01*
X49956Y6578D01*
X49957D01*
X49957D01*
X49957D01*
X49957D01*
X49957Y6578D01*
X49958Y6578D01*
X49958D01*
X49958D01*
X49959D01*
X49959D01*
X49961Y6578D01*
X49961D01*
X49961D01*
X49961Y6578D01*
D01*
X49961Y6578D01*
X49961D01*
X49961D01*
X49962Y6578D01*
X49962D01*
X49963Y6578D01*
X49963D01*
X49963D01*
X49963Y6578D01*
X49963D01*
X49964Y6578D01*
X49964D01*
X49965Y6578D01*
X49966D01*
X49967D01*
X49971D01*
X49971D01*
X49973D01*
X49977D01*
X49978D01*
X49988D01*
X49988D01*
X49990D01*
X50012D01*
X50052D01*
X50053D01*
X50054D01*
X50055D01*
X50059D01*
X50072D01*
X50078D01*
X50120D01*
X50132D01*
X50184D01*
X51402D01*
X51430D01*
X51437D01*
X51457D01*
X51486D01*
X51488D01*
X51520D01*
X51535D01*
X51535D01*
X51552D01*
X51557D01*
X51559D01*
X51562D01*
X51624D01*
X51670D01*
X51702D01*
X51719D01*
X51736Y6578D01*
X51736Y6578D01*
X51736D01*
X51736D01*
D01*
X51736D01*
X51736Y6578D01*
X51772Y6594D01*
X51773Y6594D01*
X51802Y6606D01*
X51825Y6615D01*
X51825Y6616D01*
X51827Y6616D01*
X51848Y6625D01*
X51851Y6626D01*
X51851Y6626D01*
X51863Y6631D01*
X51873Y6635D01*
X51874Y6636D01*
X51884Y6640D01*
X51899Y6646D01*
X51927Y6658D01*
X51929Y6659D01*
X51932Y6660D01*
X51965Y6674D01*
X51965D01*
X51965Y6674D01*
D01*
X51965Y6674D01*
X51987Y6695D01*
X51991Y6699D01*
X52015Y6723D01*
X52015Y6723D01*
X52051Y6759D01*
X52101Y6810D01*
X52103Y6811D01*
X52106Y6814D01*
X52112Y6820D01*
X52112Y6820D01*
X52125Y6833D01*
X52148Y6856D01*
X52149Y6857D01*
X52168Y6877D01*
X52174Y6882D01*
X52189Y6897D01*
X52213Y6921D01*
X55680Y10389D01*
X55705Y10413D01*
X55718Y10426D01*
X55725Y10433D01*
X55744Y10452D01*
X55745Y10453D01*
X55768Y10476D01*
X55781Y10489D01*
X55781Y10489D01*
X55787Y10496D01*
X55790Y10498D01*
X55792Y10500D01*
X55842Y10550D01*
X55878Y10586D01*
X55878Y10586D01*
X55902Y10610D01*
X55908Y10616D01*
X55928Y10636D01*
X55928Y10636D01*
Y10636D01*
X55928D01*
Y10636D01*
X55942Y10669D01*
X55943Y10672D01*
X55943Y10674D01*
X55955Y10702D01*
X55961Y10717D01*
X55966Y10727D01*
X55966Y10728D01*
X55971Y10741D01*
X55975Y10751D01*
Y10751D01*
X55976Y10753D01*
X55985Y10775D01*
X55985Y10775D01*
X55987Y10778D01*
X55995Y10799D01*
X56007Y10828D01*
X56008Y10829D01*
X56023Y10865D01*
Y10865D01*
Y10865D01*
Y10865D01*
Y10883D01*
Y10900D01*
Y10932D01*
Y10980D01*
Y11045D01*
Y11046D01*
Y11048D01*
Y11053D01*
Y11068D01*
Y11068D01*
Y11084D01*
Y11117D01*
Y11118D01*
Y11146D01*
Y11164D01*
Y11173D01*
Y11204D01*
Y13176D01*
Y13198D01*
Y13214D01*
Y13244D01*
Y13245D01*
Y13247D01*
Y13247D01*
Y13247D01*
Y13247D01*
Y13294D01*
Y13297D01*
Y13306D01*
Y13308D01*
Y13315D01*
Y13317D01*
Y13317D01*
Y13319D01*
Y13319D01*
Y13321D01*
Y13321D01*
Y13321D01*
Y13322D01*
Y13322D01*
Y13323D01*
Y13323D01*
Y13323D01*
Y13323D01*
Y13324D01*
Y13363D01*
Y13389D01*
Y13389D01*
Y13389D01*
Y13389D01*
Y13391D01*
Y13391D01*
Y13391D01*
Y13392D01*
Y13412D01*
Y13413D01*
Y13423D01*
X56023Y13427D01*
Y13428D01*
Y13428D01*
X56023Y13428D01*
Y13428D01*
X56023Y13428D01*
Y13428D01*
X56023Y13429D01*
Y13429D01*
Y13429D01*
X56023Y13429D01*
X56023Y13436D01*
Y13437D01*
Y13440D01*
Y13441D01*
X56023Y13442D01*
X56023Y13442D01*
Y13443D01*
Y13444D01*
Y13444D01*
X56023Y13445D01*
X56023Y13445D01*
Y13447D01*
Y13447D01*
Y13448D01*
X56023Y13449D01*
Y13449D01*
X56023Y13449D01*
Y13449D01*
Y13449D01*
X56023Y13449D01*
Y13449D01*
Y13451D01*
Y13452D01*
Y13452D01*
Y13453D01*
X55998Y13634D01*
X55998Y13641D01*
X55995Y13659D01*
X55995Y13661D01*
Y13662D01*
Y13662D01*
Y13663D01*
Y13664D01*
Y13664D01*
Y13664D01*
D01*
Y13665D01*
Y13666D01*
Y13666D01*
Y13666D01*
Y13667D01*
Y13667D01*
Y13667D01*
Y13669D01*
Y13669D01*
Y13669D01*
Y13670D01*
Y13671D01*
Y13671D01*
Y13671D01*
Y13674D01*
Y13675D01*
Y13675D01*
Y13678D01*
X55995Y13679D01*
Y13680D01*
X55995D01*
Y13681D01*
Y13682D01*
Y13682D01*
Y13683D01*
X55995Y13683D01*
Y13684D01*
Y13684D01*
X55995Y13684D01*
Y13685D01*
Y13685D01*
X55995Y13686D01*
Y13686D01*
Y13686D01*
Y13686D01*
X55995Y13687D01*
Y13688D01*
Y13688D01*
Y13689D01*
X55995Y13690D01*
Y13690D01*
Y13690D01*
X55995Y13695D01*
Y13698D01*
Y13699D01*
Y13705D01*
X55995Y13708D01*
Y13710D01*
X55995Y13710D01*
Y13711D01*
Y13713D01*
Y13713D01*
Y13715D01*
X55995Y13716D01*
Y13717D01*
X55995Y13717D01*
Y13717D01*
Y13724D01*
Y13726D01*
X55995Y13731D01*
Y13734D01*
Y13736D01*
Y13736D01*
Y13739D01*
Y13739D01*
Y13741D01*
Y13743D01*
Y13743D01*
Y13743D01*
Y13746D01*
Y13746D01*
Y13748D01*
Y13749D01*
Y13750D01*
X55981Y13834D01*
X55978Y13852D01*
X55978Y13854D01*
Y13854D01*
X55978Y13854D01*
X55978Y13854D01*
X55979Y13855D01*
X55979Y13855D01*
X55979Y13856D01*
X55979Y13857D01*
X55980Y13857D01*
X55980Y13859D01*
X55981Y13860D01*
X55981Y13861D01*
X55981Y13861D01*
X55981Y13861D01*
X55981Y13861D01*
X55981Y13861D01*
X55981Y13861D01*
X55981Y13862D01*
X55981D01*
X55981Y13862D01*
X55981Y13862D01*
X55982Y13862D01*
X55982Y13862D01*
X55982Y13863D01*
X55982Y13863D01*
X55982Y13863D01*
X55982Y13863D01*
X55984Y13867D01*
X55985Y13871D01*
X55988Y13878D01*
X55991Y13884D01*
X55993Y13890D01*
X55993Y13890D01*
X55993Y13890D01*
X55994Y13892D01*
X55996Y13898D01*
X55999Y13903D01*
D02*
G37*
G36*
X4048Y12302D02*
X3894Y12238D01*
X3887Y12235D01*
X3741Y12175D01*
X3741Y12175D01*
X3737Y12174D01*
X3737Y12174D01*
X3734Y12172D01*
X3734Y12172D01*
X3730Y12171D01*
X3730D01*
D01*
X3730Y12171D01*
X3730Y12170D01*
X3599Y11854D01*
X3599Y11853D01*
Y11853D01*
X3730Y11536D01*
X3730D01*
X3730Y11536D01*
X3730D01*
X3752Y11526D01*
X3780Y11515D01*
X3818Y11499D01*
X3849Y11487D01*
X3859Y11482D01*
X3859Y11482D01*
X3861Y11481D01*
X3875Y11476D01*
X3887Y11471D01*
X3889Y11470D01*
X3889Y11470D01*
X3890Y11469D01*
X3891Y11469D01*
X3892Y11469D01*
X3893Y11468D01*
X3901Y11465D01*
X3902Y11464D01*
X3908Y11462D01*
X3915Y11459D01*
X3916Y11459D01*
X3921Y11456D01*
X3922Y11456D01*
X3923Y11456D01*
X3925Y11455D01*
X3926Y11455D01*
X3927Y11454D01*
X3928Y11454D01*
X3928Y11453D01*
X3936Y11450D01*
X3938Y11449D01*
X3940Y11449D01*
X3945Y11447D01*
X3948Y11445D01*
X3949Y11445D01*
X3950Y11444D01*
X3952Y11444D01*
X3968Y11437D01*
X3970Y11436D01*
X3973Y11435D01*
X3975Y11434D01*
X3983Y11431D01*
D01*
X3986Y11430D01*
X3987Y11429D01*
X3987Y11429D01*
X3988Y11429D01*
X3991Y11428D01*
X4012Y11419D01*
X4013Y11419D01*
X4031Y11411D01*
X4039Y11403D01*
X4040Y11402D01*
X4051Y11391D01*
X4052Y11390D01*
X4052Y11390D01*
X4052Y11390D01*
X4052Y11390D01*
X4053Y11389D01*
X4054Y11388D01*
X4054Y11388D01*
X4054Y11388D01*
X4054Y11388D01*
X4055Y11387D01*
X4069Y11373D01*
X4074Y11368D01*
X4104Y11338D01*
Y11338D01*
X4104Y11338D01*
X4104Y11338D01*
X4104Y11338D01*
X4106Y11336D01*
X4107Y11335D01*
X4107Y11335D01*
X4108Y11334D01*
X4114Y11328D01*
X4115Y11327D01*
X4115Y11327D01*
X4115Y11326D01*
X4118Y11324D01*
X4122Y11320D01*
X4130Y11312D01*
X4131Y11311D01*
X4159Y11283D01*
X4173Y11269D01*
X4197Y11245D01*
X4210Y11232D01*
X6227Y9215D01*
X6250Y9192D01*
X6258Y9184D01*
X6268Y9174D01*
X6288Y9154D01*
X6290Y9152D01*
X6313Y9129D01*
X6324Y9117D01*
X6325Y9117D01*
X6334Y9108D01*
X6337Y9105D01*
X6339Y9103D01*
X6339Y9102D01*
X6386Y9056D01*
X6421Y9021D01*
X6444Y8998D01*
X6453Y8989D01*
X6468Y8974D01*
X6468D01*
Y8974D01*
X6504Y8959D01*
X6506Y8958D01*
X6535Y8946D01*
X6554Y8938D01*
X6559Y8936D01*
X6559Y8936D01*
X6578Y8928D01*
X6583Y8926D01*
X6583Y8926D01*
X6591Y8923D01*
X6607Y8916D01*
X6607Y8916D01*
X6607Y8916D01*
X6614Y8913D01*
X6632Y8906D01*
X6660Y8894D01*
X6662Y8893D01*
X6698Y8878D01*
D01*
X6698D01*
X6698D01*
D01*
X6698D01*
X6698D01*
X6723D01*
X6733D01*
X6767D01*
X6817D01*
X6885D01*
X6885D01*
X6888D01*
X6892D01*
X6903D01*
X6903D01*
X6920D01*
X6953D01*
X6955D01*
X6983D01*
X6995D01*
X7009D01*
X7043D01*
X12791D01*
X12819D01*
X12830D01*
X12841D01*
X12851D01*
X12859D01*
X12859D01*
X12873D01*
X12875D01*
X12879D01*
X12879D01*
X12908D01*
X12922D01*
X12923D01*
X12923D01*
X12923D01*
X12924D01*
X12958D01*
X12980D01*
X12995D01*
X13000D01*
X13006Y8878D01*
X13009Y8878D01*
X13024Y8845D01*
X13024Y8845D01*
X13024Y8845D01*
X13025Y8844D01*
X13025Y8841D01*
X13028Y8833D01*
X13028D01*
X13050D01*
X13053D01*
X13078D01*
X13078D01*
X13078D01*
X13078D01*
X13078D01*
X13079D01*
X13079D01*
X13079D01*
X13079D01*
X13081D01*
X13099D01*
X13101D01*
X13113D01*
X13128D01*
X13131Y8833D01*
X13768Y8833D01*
D01*
Y8833D01*
Y8958D01*
Y8988D01*
Y9008D01*
Y9010D01*
Y9448D01*
Y9502D01*
Y9523D01*
Y9537D01*
Y9573D01*
Y9573D01*
Y9573D01*
X13768D01*
X13131Y9573D01*
X13129D01*
X13119Y9573D01*
X13094D01*
X13093D01*
X13093D01*
X13079D01*
X13079D01*
X13078D01*
X13076D01*
X13028D01*
X13028D01*
D01*
Y9573D01*
X13028Y9572D01*
X13024Y9560D01*
X13024Y9559D01*
X13023Y9559D01*
X13023Y9559D01*
X13009Y9528D01*
X13006Y9528D01*
X13000Y9528D01*
X12996D01*
X12996D01*
X12981D01*
X12980D01*
X12975D01*
X12962D01*
X12960D01*
X12926D01*
X12926D01*
X12926D01*
X12925D01*
X12924D01*
X12910D01*
X12880D01*
X12874D01*
X12874D01*
X12858D01*
X12858D01*
X12850D01*
X12841D01*
X12831D01*
X12819D01*
X12791D01*
X7064D01*
X7016D01*
X7005D01*
X7001D01*
X6964D01*
X6960D01*
X6945D01*
X6945D01*
X6940D01*
X6940D01*
X6938D01*
X6938Y9528D01*
X6937Y9528D01*
X6916D01*
X6908Y9528D01*
X6904D01*
X6903D01*
X6902Y9528D01*
X6902D01*
X6902D01*
X6901Y9528D01*
X6901Y9528D01*
X6875D01*
X6875D01*
X6875D01*
X6869D01*
X6859Y9528D01*
X6859Y9528D01*
X6859D01*
X6859D01*
X6859D01*
X6859Y9528D01*
X6855Y9528D01*
X6855D01*
X6855D01*
X6854Y9528D01*
X6853D01*
X6841D01*
X6840D01*
X6840D01*
X6838D01*
X6833D01*
X6829Y9532D01*
X6827Y9533D01*
X6827Y9533D01*
X6826Y9534D01*
X6819Y9542D01*
X6818Y9543D01*
X6817Y9543D01*
X6817Y9543D01*
X6817Y9544D01*
X6814Y9546D01*
X6807Y9554D01*
X6803Y9558D01*
X6803Y9558D01*
X6802Y9558D01*
X6784Y9576D01*
X6784Y9576D01*
X6784Y9577D01*
X6784Y9577D01*
X6784Y9577D01*
X6784Y9577D01*
X6783Y9578D01*
X6782Y9578D01*
X6779Y9581D01*
X6774Y9587D01*
X6758Y9602D01*
X6758Y9602D01*
X6758Y9603D01*
X6756Y9604D01*
X6752Y9608D01*
X6752Y9608D01*
X6740Y9620D01*
X6716Y9645D01*
X6713Y9648D01*
X6705Y9655D01*
X6672Y9689D01*
X4670Y11691D01*
X4655Y11705D01*
X4629Y11732D01*
X4618Y11742D01*
X4589Y11771D01*
X4582Y11779D01*
X4575Y11785D01*
X4565Y11795D01*
X4565Y11796D01*
X4560Y11801D01*
X4531Y11829D01*
X4530Y11831D01*
X4514Y11847D01*
X4512Y11849D01*
X4512Y11849D01*
X4511Y11849D01*
X4511Y11849D01*
X4511Y11849D01*
X4510Y11850D01*
X4499Y11861D01*
X4499Y11862D01*
X4490Y11870D01*
X4483Y11888D01*
X4483Y11889D01*
X4474Y11910D01*
X4469Y11922D01*
X4467Y11927D01*
X4466Y11928D01*
X4466Y11929D01*
X4458Y11948D01*
X4458Y11948D01*
X4458Y11949D01*
X4458Y11949D01*
X4458Y11949D01*
X4458Y11949D01*
X4458Y11949D01*
X4457Y11951D01*
X4457Y11951D01*
X4456Y11952D01*
X4456Y11952D01*
X4456Y11952D01*
X4455Y11955D01*
X4453Y11960D01*
X4452Y11962D01*
X4452Y11963D01*
X4451Y11964D01*
X4451Y11964D01*
X4448Y11973D01*
X4448Y11973D01*
X4447Y11973D01*
X4447Y11975D01*
X4447Y11975D01*
X4446Y11976D01*
X4445Y11979D01*
X4445Y11979D01*
X4444Y11981D01*
X4444Y11981D01*
X4444Y11981D01*
X4443Y11983D01*
X4443Y11983D01*
X4439Y11993D01*
X4439Y11994D01*
X4439Y11994D01*
X4434Y12006D01*
X4433Y12008D01*
X4433Y12009D01*
X4432Y12011D01*
X4432Y12011D01*
X4430Y12015D01*
X4426Y12024D01*
X4420Y12039D01*
X4415Y12051D01*
X4402Y12082D01*
X4387Y12119D01*
X4366Y12171D01*
X4366D01*
X4271Y12210D01*
X4265Y12213D01*
X4053Y12300D01*
X4048Y12302D01*
X4048Y12302D01*
D02*
G37*
G36*
X32448Y7958D02*
X32120Y7822D01*
X31984Y7494D01*
X32448D01*
Y7958D01*
D02*
G37*
G36*
X32548D02*
Y7494D01*
X33012D01*
X32876Y7822D01*
X32548Y7958D01*
D02*
G37*
G36*
X26498Y7394D02*
X26034D01*
X26170Y7066D01*
X26498Y6930D01*
Y7394D01*
D02*
G37*
G36*
X27062D02*
X26598D01*
Y6930D01*
X26926Y7066D01*
X27062Y7394D01*
D02*
G37*
G36*
X55491Y3905D02*
X54561Y3520D01*
X54175Y2589D01*
X55491D01*
Y3905D01*
D02*
G37*
G36*
X1999Y3964D02*
Y2648D01*
X3315D01*
X2929Y3579D01*
X1999Y3964D01*
D02*
G37*
G36*
X40450Y7353D02*
X40093D01*
X40125Y7278D01*
X40172Y7163D01*
X40198Y7101D01*
X40198Y7101D01*
X40198D01*
Y7101D01*
X40198D01*
X40317Y7051D01*
X40341Y7042D01*
X40450Y6996D01*
Y7353D01*
D02*
G37*
G36*
X40908D02*
X40550D01*
Y6996D01*
X40672Y7047D01*
X40725Y7068D01*
X40803Y7101D01*
X40803Y7101D01*
D01*
Y7101D01*
X40803D01*
Y7101D01*
X40877Y7279D01*
X40908Y7353D01*
D02*
G37*
G36*
X32448Y7394D02*
X31984D01*
X32120Y7066D01*
X32448Y6930D01*
Y7394D01*
D02*
G37*
G36*
X33012D02*
X32548D01*
Y6930D01*
X32876Y7066D01*
X33012Y7394D01*
D02*
G37*
G36*
X49698Y17850D02*
X49668Y17838D01*
X49659Y17834D01*
X49636Y17825D01*
X49634Y17824D01*
X49620Y17818D01*
X49488Y17763D01*
Y17763D01*
X49484Y17754D01*
X49482Y17749D01*
X49482Y17748D01*
X49481Y17747D01*
X49475Y17733D01*
X49471Y17723D01*
X49471Y17722D01*
X49471Y17722D01*
X49470Y17722D01*
X49470Y17721D01*
X49470Y17721D01*
X49470Y17720D01*
X49464Y17706D01*
X49460Y17695D01*
X49458Y17691D01*
X49452Y17677D01*
X49439Y17646D01*
X49439Y17645D01*
X49438Y17644D01*
X49438Y17643D01*
X49438Y17643D01*
X49437Y17642D01*
X49436Y17638D01*
X49436Y17638D01*
X49436Y17638D01*
X49436Y17638D01*
X49436Y17638D01*
X49436Y17638D01*
X49436Y17637D01*
X49434Y17633D01*
X49433Y17631D01*
X49432Y17628D01*
X49429Y17620D01*
X49427Y17616D01*
X49426Y17613D01*
X49425Y17611D01*
X49424Y17610D01*
X49423Y17607D01*
X49417Y17592D01*
X49413Y17583D01*
X49409Y17573D01*
X49407Y17569D01*
X49405Y17564D01*
X49401Y17553D01*
X49698D01*
Y17850D01*
D02*
G37*
G36*
X49798D02*
Y17553D01*
X50095D01*
X50091Y17564D01*
X50089Y17569D01*
X50086Y17575D01*
X50079Y17592D01*
X50079Y17592D01*
X50073Y17607D01*
X50072Y17610D01*
X50071Y17613D01*
X50067Y17620D01*
X50067D01*
X50064Y17628D01*
X50063Y17631D01*
X50062Y17633D01*
X50060Y17637D01*
X50060Y17638D01*
X50060Y17638D01*
X50060Y17638D01*
X50060Y17638D01*
X50059Y17642D01*
X50058Y17643D01*
X50058Y17644D01*
X50057Y17646D01*
X50044Y17677D01*
X50040Y17687D01*
X50028Y17716D01*
X50026Y17720D01*
X50026Y17720D01*
X50026Y17721D01*
X50026Y17721D01*
X50025Y17722D01*
X50025Y17723D01*
X50021Y17733D01*
X50016Y17744D01*
X50009Y17761D01*
X50008Y17763D01*
Y17763D01*
X50008D01*
D01*
X50008Y17763D01*
X50008D01*
X49932Y17795D01*
X49932Y17795D01*
X49908Y17805D01*
X49892Y17812D01*
X49891Y17812D01*
X49798Y17850D01*
D02*
G37*
G36*
X40448Y16633D02*
X40403Y16614D01*
X40346Y16590D01*
X40275Y16561D01*
X40215Y16536D01*
X40215Y16536D01*
X40215D01*
D01*
X40215Y16536D01*
X40215Y16536D01*
X40214Y16534D01*
X40213Y16531D01*
X40213Y16531D01*
X40210Y16525D01*
X40137Y16348D01*
X40137Y16348D01*
X40118Y16303D01*
X40448D01*
Y16633D01*
D02*
G37*
G36*
X40548D02*
Y16303D01*
X40878D01*
X40877Y16305D01*
X40875Y16309D01*
X40865Y16334D01*
X40861Y16343D01*
X40853Y16363D01*
X40852Y16365D01*
Y16365D01*
X40852Y16366D01*
X40849Y16374D01*
X40848Y16376D01*
X40846Y16380D01*
X40846Y16381D01*
X40845Y16381D01*
X40845Y16382D01*
X40845Y16383D01*
X40845Y16383D01*
X40844Y16385D01*
X40843Y16387D01*
X40840Y16395D01*
X40838Y16400D01*
X40835Y16407D01*
X40834Y16408D01*
X40834Y16408D01*
X40834Y16408D01*
X40834Y16409D01*
X40834Y16409D01*
X40834Y16409D01*
X40829Y16422D01*
X40824Y16432D01*
X40814Y16457D01*
X40796Y16499D01*
X40784Y16529D01*
X40781Y16536D01*
X40781Y16536D01*
Y16536D01*
X40781D01*
Y16536D01*
X40781D01*
X40776Y16538D01*
X40734Y16556D01*
X40710Y16566D01*
X40700Y16570D01*
X40673Y16581D01*
X40668Y16583D01*
X40665Y16584D01*
X40661Y16586D01*
X40654Y16589D01*
X40654Y16589D01*
X40653Y16589D01*
X40651Y16590D01*
X40650Y16591D01*
X40649Y16591D01*
X40648Y16591D01*
X40648Y16592D01*
X40642Y16594D01*
X40637Y16596D01*
X40636Y16596D01*
X40632Y16598D01*
X40630Y16599D01*
X40628Y16600D01*
X40626Y16601D01*
X40626Y16601D01*
X40624Y16601D01*
X40604Y16610D01*
X40589Y16616D01*
X40585Y16617D01*
X40570Y16624D01*
X40567Y16625D01*
X40565Y16626D01*
X40562Y16627D01*
X40556Y16630D01*
X40556Y16630D01*
X40553Y16631D01*
X40550Y16632D01*
X40548Y16633D01*
X40548Y16633D01*
D02*
G37*
G36*
X55432Y26978D02*
X54116D01*
X54502Y26047D01*
X55432Y25662D01*
Y26978D01*
D02*
G37*
G36*
X3256Y27106D02*
X1940D01*
Y25790D01*
X2870Y26175D01*
X3256Y27106D01*
D02*
G37*
G36*
X35439Y21678D02*
X35439Y21678D01*
X35439D01*
X35405Y21664D01*
X35403Y21663D01*
X35401Y21662D01*
X35373Y21650D01*
X35358Y21644D01*
X35348Y21640D01*
X35332Y21633D01*
X35324Y21630D01*
X35324D01*
X35322Y21629D01*
X35300Y21620D01*
X35300Y21620D01*
X35295Y21618D01*
X35276Y21610D01*
X35247Y21598D01*
X35245Y21598D01*
X35209Y21583D01*
X35209Y21583D01*
D01*
X35209Y21583D01*
X35197Y21570D01*
X35185Y21558D01*
X35161Y21535D01*
X35127Y21500D01*
X35080Y21453D01*
X35080Y21453D01*
X35078Y21451D01*
X35074Y21448D01*
X35065Y21438D01*
X35065Y21438D01*
X35053Y21427D01*
X35030Y21404D01*
X35029Y21402D01*
X35010Y21383D01*
X34998Y21371D01*
X34991Y21365D01*
X34968Y21341D01*
X32716Y19089D01*
X32004Y18906D01*
Y18906D01*
X31973Y18875D01*
Y18875D01*
X31835Y18737D01*
X27256D01*
X27058D01*
X27042Y18805D01*
X27042Y18737D01*
X27042D01*
X27042Y18875D01*
Y18906D01*
X26054D01*
Y17919D01*
X27042D01*
Y17919D01*
X27073Y17950D01*
Y17950D01*
X27211Y18087D01*
X31790D01*
X31988D01*
X32004Y18020D01*
X32004Y18087D01*
X32004D01*
X32004Y17950D01*
Y17919D01*
X32992D01*
Y18309D01*
X32992Y18309D01*
Y18309D01*
Y18309D01*
X32992Y18384D01*
Y18398D01*
Y18408D01*
X32992Y18412D01*
Y18415D01*
X32992Y18415D01*
Y18420D01*
X32992Y18421D01*
X32992Y18421D01*
X32992Y18439D01*
Y18447D01*
X32997Y18452D01*
X33005Y18460D01*
X33017Y18472D01*
X33036Y18491D01*
X33052Y18507D01*
X33087Y18542D01*
X33101Y18556D01*
X33116Y18571D01*
X33131Y18586D01*
X35412Y20867D01*
X35446Y20900D01*
X35453Y20908D01*
X35456Y20911D01*
X35481Y20936D01*
X35493Y20948D01*
X35497Y20952D01*
X35499Y20954D01*
X35499Y20954D01*
X35499Y20954D01*
X35515Y20970D01*
X35521Y20976D01*
X35524Y20979D01*
X35524Y20979D01*
X35525Y20980D01*
X35525Y20980D01*
X35525Y20980D01*
X35525Y20980D01*
X35525Y20980D01*
X35543Y20998D01*
X35544Y20998D01*
X35548Y21003D01*
X35555Y21010D01*
X35558Y21013D01*
X35558Y21013D01*
X35558Y21013D01*
X35559Y21014D01*
X35560Y21015D01*
X35568Y21023D01*
X35568Y21023D01*
X35568Y21023D01*
X35570Y21025D01*
X35573Y21028D01*
X35579D01*
X35581D01*
X35581D01*
X35582D01*
X35593D01*
X35595D01*
X35596Y21028D01*
X35596D01*
X35596D01*
X35599Y21028D01*
X35600Y21028D01*
X35600D01*
X35600D01*
X35600D01*
X35601Y21028D01*
X35610Y21028D01*
X35616D01*
X35617D01*
X35641Y21028D01*
X35642D01*
X35642Y21028D01*
X35642D01*
X35642D01*
X35644Y21028D01*
X35644D01*
X35649D01*
X35656Y21028D01*
X35678Y21028D01*
X35678D01*
X35679Y21028D01*
X35681D01*
X35681D01*
X35681D01*
X35686D01*
X35686D01*
X35696D01*
X35706D01*
X35747D01*
X35750D01*
X35760D01*
X35810D01*
X38277D01*
X38327D01*
X38337D01*
X38340D01*
X38381D01*
X38391D01*
X38401D01*
X38401D01*
X38406D01*
X38408D01*
X38408Y21028D01*
X38408Y21028D01*
X38431D01*
X38439Y21028D01*
X38443D01*
X38444D01*
X38445Y21028D01*
X38445D01*
X38445Y21028D01*
X38446Y21028D01*
X38470D01*
X38471D01*
X38477D01*
X38487Y21028D01*
X38487Y21028D01*
X38487D01*
X38487D01*
X38487Y21028D01*
X38492Y21028D01*
X38492D01*
X38493Y21028D01*
X38495D01*
X38505D01*
X38506D01*
X38509D01*
X38514D01*
X38517Y21025D01*
X38519Y21023D01*
X38520Y21022D01*
X38527Y21015D01*
X38528Y21014D01*
X38529Y21013D01*
X38529Y21013D01*
X38532Y21010D01*
X38532Y21010D01*
X38532Y21010D01*
X38532Y21010D01*
X38533Y21009D01*
X38539Y21003D01*
X38544Y20998D01*
X38544Y20998D01*
X38561Y20980D01*
X38562Y20980D01*
X38562Y20980D01*
X38562Y20980D01*
X38563Y20979D01*
X38563Y20979D01*
X38566Y20976D01*
X38572Y20970D01*
X38572Y20970D01*
X38588Y20954D01*
X38588Y20954D01*
X38588Y20954D01*
X38590Y20952D01*
X38590Y20952D01*
X38593Y20949D01*
X38593Y20949D01*
X38602Y20940D01*
X38606Y20936D01*
X38633Y20909D01*
X38636Y20906D01*
X38643Y20899D01*
X38681Y20861D01*
X39878Y19664D01*
X39979Y19563D01*
X39989Y19553D01*
X39989Y19553D01*
X40000Y19542D01*
X40005Y19537D01*
X40010Y19532D01*
X40015Y19505D01*
X40021Y19467D01*
X40031Y19403D01*
X40031Y19401D01*
X40031Y19401D01*
D01*
X40035Y19378D01*
X40035Y19374D01*
Y19374D01*
X40041Y19337D01*
D01*
X40044Y19322D01*
X40108Y18918D01*
X40112Y18896D01*
X40115Y18875D01*
X40115Y18875D01*
X40120Y18841D01*
X40121Y18840D01*
X40121Y18839D01*
X40123Y18826D01*
X40125Y18813D01*
X40125Y18813D01*
X40126Y18806D01*
X40127Y18798D01*
X40127Y18798D01*
X40128Y18796D01*
X40128Y18793D01*
Y18773D01*
Y18773D01*
Y18754D01*
Y18753D01*
Y18753D01*
Y18752D01*
Y18750D01*
Y18749D01*
Y18747D01*
Y18732D01*
Y18729D01*
Y18706D01*
Y18706D01*
Y18706D01*
Y18706D01*
Y18705D01*
Y18704D01*
Y18687D01*
Y18659D01*
Y18654D01*
Y18639D01*
Y18610D01*
Y18602D01*
Y18596D01*
Y18592D01*
Y18591D01*
Y18591D01*
Y18591D01*
Y18591D01*
Y18589D01*
Y18585D01*
Y18584D01*
Y18584D01*
Y18581D01*
Y18581D01*
Y18573D01*
Y18572D01*
Y18569D01*
Y18564D01*
Y18564D01*
Y18562D01*
Y18540D01*
X40128Y18529D01*
X40128D01*
X40128Y18518D01*
Y18512D01*
X40125Y18509D01*
X40120Y18505D01*
X40115Y18500D01*
X40108Y18493D01*
X40105Y18489D01*
X40098Y18483D01*
X40092Y18476D01*
X40080Y18465D01*
X40067Y18451D01*
X40033Y18417D01*
X40026Y18410D01*
X40000Y18384D01*
X39993Y18378D01*
X38657Y17041D01*
X38635Y17019D01*
X38631Y17016D01*
X38616Y17000D01*
X38597Y16981D01*
X38596Y16980D01*
X38573Y16957D01*
X38562Y16946D01*
X38562Y16946D01*
X38551Y16935D01*
X38547Y16931D01*
X38546Y16931D01*
X38545Y16929D01*
X38499Y16883D01*
X38466Y16850D01*
X38443Y16827D01*
X38425Y16809D01*
X38418Y16803D01*
Y16803D01*
X38418D01*
X38403Y16766D01*
X38403Y16766D01*
X38391Y16737D01*
X38382Y16715D01*
X38381Y16713D01*
X38381Y16712D01*
X38371Y16688D01*
X38371Y16688D01*
X38367Y16678D01*
X38361Y16665D01*
X38355Y16650D01*
X38351Y16640D01*
X38339Y16611D01*
X38339Y16610D01*
X38335Y16602D01*
X38323Y16573D01*
D01*
Y16573D01*
Y16573D01*
D01*
Y16573D01*
Y16573D01*
Y16544D01*
Y16536D01*
Y16533D01*
Y16501D01*
Y16501D01*
Y16447D01*
Y16373D01*
Y16372D01*
Y16368D01*
Y16360D01*
Y16343D01*
Y16311D01*
Y16310D01*
Y16284D01*
Y16277D01*
Y16255D01*
Y16215D01*
Y12585D01*
Y12333D01*
Y12326D01*
Y12260D01*
Y12224D01*
Y12176D01*
Y12143D01*
Y12143D01*
Y12114D01*
Y12106D01*
X38323Y12084D01*
Y12084D01*
X38323Y12084D01*
Y12027D01*
Y12019D01*
Y12013D01*
X38323Y11953D01*
Y11953D01*
X38328Y11483D01*
X38332D01*
X38573D01*
X38671D01*
X38819D01*
X38890D01*
X38905D01*
X38944D01*
X39018D01*
X39020D01*
X39061D01*
X39062D01*
X39063D01*
X39063D01*
X39063D01*
X39066D01*
X39068D01*
Y11483D01*
X39068Y11483D01*
X39073Y11853D01*
X39073Y11853D01*
X39073Y11853D01*
Y11853D01*
Y11853D01*
X39073Y11853D01*
X39072Y11938D01*
X39071Y11957D01*
X39071Y12017D01*
X39071Y12023D01*
Y12023D01*
Y12023D01*
Y12023D01*
X39069Y12113D01*
X39069Y12115D01*
X39068Y12223D01*
Y12223D01*
Y12223D01*
Y12223D01*
Y12223D01*
X39068Y12223D01*
D01*
Y12223D01*
Y12223D01*
Y12223D01*
X39068D01*
X39068Y12223D01*
X39063Y12224D01*
X39063Y12224D01*
X38973Y12245D01*
X38973Y12247D01*
Y12307D01*
Y12312D01*
Y12474D01*
Y12474D01*
Y12514D01*
Y16194D01*
Y16245D01*
Y16245D01*
Y16254D01*
Y16254D01*
Y16256D01*
Y16304D01*
Y16320D01*
Y16327D01*
Y16328D01*
Y16332D01*
Y16332D01*
Y16332D01*
Y16334D01*
X38973Y16334D01*
X38973Y16334D01*
Y16356D01*
Y16356D01*
X38973Y16363D01*
Y16368D01*
Y16368D01*
X38973Y16370D01*
Y16370D01*
Y16370D01*
Y16371D01*
Y16371D01*
Y16394D01*
Y16396D01*
Y16401D01*
Y16410D01*
Y16412D01*
Y16412D01*
Y16412D01*
Y16413D01*
X38973Y16413D01*
X38973Y16416D01*
Y16416D01*
Y16416D01*
X38973Y16417D01*
Y16418D01*
Y16429D01*
Y16431D01*
Y16431D01*
Y16433D01*
Y16439D01*
X38976Y16442D01*
X38978Y16444D01*
X38978Y16444D01*
X38985Y16451D01*
X38987Y16453D01*
X38988Y16453D01*
X38988Y16453D01*
X38988Y16454D01*
X38991Y16457D01*
X38998Y16464D01*
X39003Y16469D01*
X39021Y16487D01*
X39021Y16487D01*
X39022Y16487D01*
X39022Y16487D01*
X39022Y16487D01*
X39022Y16488D01*
X39022Y16488D01*
X39025Y16491D01*
X39032Y16497D01*
X39048Y16514D01*
X39048Y16514D01*
X39050Y16516D01*
X39053Y16519D01*
X39065Y16531D01*
X39087Y16553D01*
X39087Y16553D01*
X39091Y16557D01*
X39099Y16565D01*
X39132Y16597D01*
X40458Y17924D01*
X40463Y17929D01*
X40476Y17942D01*
X40500Y17966D01*
X40501Y17967D01*
X40502Y17968D01*
X40502Y17968D01*
X40513Y17979D01*
X40517Y17983D01*
X40535Y18001D01*
X40544Y18010D01*
X40563Y18029D01*
X40574Y18040D01*
X40582Y18048D01*
X40587Y18053D01*
X40601D01*
X40606Y18053D01*
X40626Y18053D01*
X40629D01*
X40638Y18053D01*
X40649D01*
X40662D01*
X40705D01*
X40705D01*
X40706D01*
X40706D01*
X40706D01*
X40708D01*
X40708Y18053D01*
X40783Y18053D01*
X40811D01*
X40868Y18053D01*
X40868Y18690D01*
Y18691D01*
Y18692D01*
X40868Y18698D01*
Y18700D01*
Y18707D01*
Y18709D01*
Y18714D01*
Y18721D01*
Y18725D01*
Y18749D01*
Y18750D01*
Y18751D01*
Y18793D01*
Y18793D01*
X40823Y19437D01*
D01*
X40823Y19503D01*
Y19503D01*
Y19503D01*
Y19503D01*
X40775Y19618D01*
D01*
X40728Y19733D01*
X40692Y19769D01*
X40639Y19822D01*
X40627Y19833D01*
X40627Y19833D01*
X40616Y19845D01*
X40607Y19854D01*
X40592Y19869D01*
D01*
X40535Y19926D01*
X40531Y19929D01*
X40531Y19929D01*
X40513Y19947D01*
X40418Y20042D01*
X40418Y20042D01*
X40376Y20085D01*
X39122Y21338D01*
X39100Y21361D01*
X39090Y21370D01*
X39081Y21380D01*
X39063Y21397D01*
X39063Y21398D01*
X39038Y21423D01*
X39025Y21435D01*
X39025Y21435D01*
X39018Y21442D01*
X39015Y21445D01*
X39014Y21447D01*
X39014Y21447D01*
X38963Y21497D01*
X38927Y21533D01*
X38903Y21557D01*
X38891Y21569D01*
X38878Y21583D01*
X38878Y21583D01*
D01*
X38878D01*
Y21583D01*
X38878D01*
X38842Y21598D01*
X38840Y21598D01*
X38811Y21610D01*
X38794Y21617D01*
X38787Y21620D01*
X38765Y21629D01*
X38763Y21630D01*
X38763Y21630D01*
X38758Y21632D01*
X38739Y21640D01*
X38729Y21644D01*
X38714Y21650D01*
X38685Y21662D01*
X38684Y21663D01*
X38682Y21664D01*
X38648Y21678D01*
X38648D01*
X38648D01*
X38648D01*
X38626D01*
X38612D01*
X38578D01*
X38526D01*
X38456D01*
X38456D01*
X38454D01*
X38450D01*
X38439D01*
X38439D01*
X38422D01*
X38390D01*
X38389D01*
X38363D01*
X38349D01*
X38336D01*
X38298D01*
X35789D01*
X35753D01*
X35736D01*
X35726D01*
X35698D01*
X35697D01*
X35664D01*
X35647D01*
X35647D01*
X35637D01*
X35634D01*
X35631D01*
X35631D01*
X35561D01*
X35509D01*
X35475D01*
X35464D01*
X35439Y21678D01*
D02*
G37*
G36*
X13685Y19980D02*
Y19980D01*
D01*
X13685Y19980D01*
X13682Y19966D01*
X13660Y19963D01*
Y19963D01*
X13165Y19905D01*
X13053Y19892D01*
X12916D01*
X10759D01*
X10730D01*
X10712D01*
X10703D01*
X10673D01*
X10671D01*
X10638D01*
X10621D01*
X10621D01*
X10608D01*
X10604D01*
X10600D01*
X10600D01*
X10534D01*
X10488D01*
X10486D01*
X10453D01*
X10451D01*
X10419Y19892D01*
X10419D01*
Y19892D01*
X10382Y19877D01*
X10380Y19876D01*
X10352Y19864D01*
X10333Y19856D01*
X10328Y19854D01*
X10327Y19854D01*
X10326Y19853D01*
X10318Y19850D01*
X10304Y19844D01*
X10304D01*
X10295Y19841D01*
X10280Y19834D01*
X10280Y19834D01*
X10279Y19834D01*
X10255Y19824D01*
X10227Y19812D01*
X10225Y19812D01*
X10189Y19797D01*
X10189Y19797D01*
D01*
X10189Y19797D01*
X10172Y19780D01*
X10166Y19773D01*
X10143Y19751D01*
X10143Y19751D01*
X10112Y19720D01*
X10069Y19677D01*
X10067Y19675D01*
X10065Y19673D01*
X10062Y19669D01*
X10048Y19656D01*
X10048Y19656D01*
X10037Y19645D01*
X10015Y19623D01*
X10014Y19621D01*
X9991Y19599D01*
X9979Y19587D01*
X9973Y19580D01*
X9955Y19563D01*
X9374Y18982D01*
X9362Y18970D01*
X9337Y18945D01*
X9324Y18932D01*
X9294Y18902D01*
X9291Y18899D01*
X9280Y18888D01*
X9278Y18886D01*
X9278Y18885D01*
X9277Y18885D01*
X9273Y18881D01*
X9273Y18881D01*
X9271Y18879D01*
X9239Y18847D01*
X9238Y18846D01*
X9229Y18836D01*
X9220Y18827D01*
X9217Y18825D01*
X9217Y18825D01*
X9217Y18825D01*
X9217Y18824D01*
X9216Y18823D01*
X9204Y18811D01*
X9203Y18811D01*
X9198Y18806D01*
X9194Y18802D01*
X9176Y18795D01*
X9175Y18794D01*
X9174Y18793D01*
X9154Y18786D01*
X9146Y18782D01*
X9145Y18782D01*
X9144Y18781D01*
X9144Y18781D01*
X9133Y18777D01*
X9130Y18775D01*
X9127Y18774D01*
X9126Y18774D01*
X9125Y18773D01*
X9125Y18773D01*
X9124Y18773D01*
X9116Y18770D01*
X9113Y18768D01*
X9112Y18768D01*
X9111Y18768D01*
X9106Y18766D01*
X9106Y18765D01*
X9106Y18765D01*
X9105Y18765D01*
X9105Y18765D01*
X9102Y18764D01*
X9102Y18764D01*
X9101Y18764D01*
X9101Y18763D01*
X9097Y18762D01*
X9096Y18761D01*
X9095Y18761D01*
X9095Y18761D01*
X9095Y18761D01*
X9093Y18760D01*
X9092Y18760D01*
X9092Y18760D01*
X9092Y18760D01*
X9091Y18759D01*
X9090Y18759D01*
X9090Y18759D01*
X9087Y18758D01*
X9086Y18757D01*
X9080Y18755D01*
X9080Y18755D01*
X9067Y18749D01*
X9066Y18749D01*
X9046Y18741D01*
X9046Y18741D01*
X9043Y18739D01*
X9038Y18737D01*
X9034Y18736D01*
X9027Y18733D01*
X9022Y18730D01*
X9019Y18729D01*
X9014Y18727D01*
X9010Y18726D01*
X8972Y18710D01*
X8948Y18700D01*
X8946Y18699D01*
X8946Y18699D01*
X8946Y18699D01*
Y18699D01*
X8943Y18692D01*
X8825Y18408D01*
X8822Y18401D01*
X8820Y18396D01*
Y18396D01*
D01*
Y18396D01*
X8823Y18390D01*
X8873Y18268D01*
X8876Y18261D01*
X8946Y18094D01*
X8946Y18094D01*
D01*
X8946Y18094D01*
X8946D01*
X8987Y18077D01*
X9176Y17999D01*
X9182Y17996D01*
X9248Y17969D01*
X9248D01*
D01*
X9338Y18006D01*
X9551Y18094D01*
Y18094D01*
X9554Y18103D01*
X9561Y18118D01*
X9568Y18137D01*
X9579Y18162D01*
X9581Y18169D01*
X9585Y18176D01*
X9587Y18181D01*
X9587Y18181D01*
X9587Y18181D01*
X9587Y18181D01*
X9587Y18181D01*
X9590Y18188D01*
X9591Y18191D01*
X9592Y18194D01*
X9594Y18198D01*
X9594Y18198D01*
X9597Y18205D01*
X9598Y18208D01*
X9598Y18208D01*
X9601Y18215D01*
X9601Y18216D01*
X9601Y18216D01*
X9601Y18216D01*
X9607Y18230D01*
X9607Y18230D01*
X9611Y18240D01*
X9611Y18240D01*
X9611Y18241D01*
X9611Y18241D01*
X9611Y18241D01*
X9611Y18241D01*
X9613Y18244D01*
X9613Y18245D01*
X9613Y18245D01*
X9614Y18246D01*
X9614Y18248D01*
X9615Y18250D01*
X9615Y18251D01*
X9616Y18251D01*
X9616Y18252D01*
X9616Y18253D01*
X9617Y18254D01*
X9617Y18254D01*
X9617Y18254D01*
X9617Y18254D01*
X9617Y18255D01*
X9617Y18255D01*
X9617Y18255D01*
X9617Y18256D01*
X9619Y18260D01*
X9620Y18260D01*
X9620Y18262D01*
X9621Y18264D01*
X9629Y18282D01*
X9629Y18284D01*
X9630Y18285D01*
X9632Y18291D01*
X9633Y18292D01*
X9637Y18302D01*
X9637Y18304D01*
X9638Y18304D01*
X9638Y18304D01*
X9638Y18305D01*
X9645Y18323D01*
X9647Y18326D01*
X9647Y18326D01*
X9654Y18343D01*
X9661Y18350D01*
X9664Y18353D01*
X9664Y18353D01*
X9677Y18366D01*
X9678Y18368D01*
X9694Y18383D01*
X9720Y18409D01*
X9723Y18413D01*
X9724Y18413D01*
X9724Y18413D01*
X9732Y18421D01*
X9748Y18437D01*
X9781Y18470D01*
X9787Y18476D01*
X9790Y18479D01*
X9818Y18507D01*
X9833Y18522D01*
X10399Y19088D01*
X10430Y19119D01*
X10438Y19127D01*
X10443Y19132D01*
X10443Y19132D01*
X10462Y19151D01*
X10471Y19160D01*
X10471Y19160D01*
X10476Y19165D01*
X10478Y19167D01*
X10478Y19167D01*
X10478Y19167D01*
X10494Y19183D01*
X10499Y19188D01*
X10502Y19191D01*
X10502Y19191D01*
X10503Y19193D01*
X10503Y19193D01*
X10503Y19193D01*
X10504Y19193D01*
X10504Y19193D01*
X10504Y19193D01*
X10504Y19193D01*
X10504Y19193D01*
X10504Y19194D01*
X10504Y19194D01*
X10504Y19194D01*
X10504Y19194D01*
X10504Y19194D01*
X10504Y19194D01*
D01*
X10504Y19194D01*
X10504Y19194D01*
X10523Y19212D01*
X10523Y19212D01*
X10527Y19216D01*
X10535Y19224D01*
X10537Y19226D01*
X10537Y19226D01*
X10537Y19226D01*
X10537Y19226D01*
X10538Y19227D01*
X10539Y19228D01*
X10547Y19236D01*
X10547Y19236D01*
X10547Y19237D01*
X10547Y19237D01*
X10549Y19238D01*
X10553Y19242D01*
X10560D01*
X10561D01*
X10562D01*
X10563D01*
X10575D01*
X10576Y19242D01*
X10577D01*
X10577D01*
X10577D01*
X10577D01*
X10579Y19242D01*
X10590Y19242D01*
X10595D01*
X10595D01*
X10595D01*
X10621Y19242D01*
X10622D01*
X10622Y19242D01*
X10623D01*
X10623D01*
X10623D01*
X10625Y19242D01*
X10625D01*
X10630D01*
X10636Y19242D01*
X10636D01*
X10657Y19242D01*
X10657D01*
X10658Y19242D01*
X10660D01*
X10660D01*
X10667D01*
X10667D01*
X10683D01*
X10717D01*
X10717D01*
X10722D01*
X10733D01*
X10780D01*
X12919D01*
X13053D01*
X13165Y19229D01*
X13660Y19170D01*
Y19170D01*
X13682Y19168D01*
X13685Y19154D01*
X13685Y19154D01*
D01*
X13804Y19154D01*
X13804Y19154D01*
X13804Y19154D01*
X14392Y19154D01*
X14392D01*
X14511D01*
Y19154D01*
D01*
X14511Y19154D01*
X14514Y19168D01*
X14536Y19170D01*
Y19170D01*
X15031Y19229D01*
X15143Y19242D01*
X15277D01*
X18820D01*
X18868D01*
X18879D01*
X18883D01*
X18883D01*
X18919D01*
X18936D01*
X18937D01*
X18943D01*
X18943D01*
X18945D01*
X18946D01*
X18946D01*
X18966D01*
X18967D01*
X18972Y19242D01*
X18976D01*
X18977D01*
X18980Y19242D01*
X18980D01*
X18980D01*
X18981D01*
X18982D01*
X19007D01*
X19008D01*
X19008D01*
X19012D01*
X19024Y19242D01*
X19024Y19242D01*
X19024D01*
X19024D01*
X19024D01*
X19024Y19242D01*
X19025Y19242D01*
X19025D01*
X19025D01*
X19025D01*
X19026Y19242D01*
X19039D01*
X19040D01*
X19041D01*
X19042D01*
X19050D01*
X19054Y19238D01*
X19055Y19237D01*
X19055Y19237D01*
X19055Y19236D01*
X19064Y19228D01*
X19065Y19227D01*
X19065Y19227D01*
X19065Y19227D01*
X19065Y19227D01*
X19068Y19224D01*
X19075Y19217D01*
X19079Y19213D01*
X19098Y19194D01*
X19098Y19194D01*
X19098Y19194D01*
X19098Y19194D01*
X19099Y19193D01*
X19099Y19193D01*
X19099Y19193D01*
X19099Y19193D01*
X19099Y19193D01*
X19099Y19193D01*
X19099Y19193D01*
X19099Y19193D01*
X19100Y19192D01*
X19100Y19192D01*
X19101Y19191D01*
X19101Y19191D01*
X19102Y19190D01*
X19102Y19190D01*
X19105Y19187D01*
X19110Y19182D01*
X19125Y19167D01*
X19125Y19167D01*
X19125Y19166D01*
X19128Y19164D01*
X19133Y19159D01*
X19141Y19151D01*
X19156Y19136D01*
X19156Y19136D01*
X19162Y19130D01*
X19170Y19122D01*
X19199Y19093D01*
X19445Y18847D01*
X19451Y18841D01*
X19471Y18821D01*
X19486Y18806D01*
X19490Y18802D01*
X19525Y18767D01*
X19541Y18751D01*
X19559Y18733D01*
X19569Y18722D01*
X19578Y18714D01*
X19583Y18709D01*
X19582Y18702D01*
X19564Y18653D01*
X19564Y18653D01*
X19564Y18653D01*
X19564Y18653D01*
X19564Y18652D01*
X19564Y18652D01*
X19564Y18652D01*
X19564Y18652D01*
X19564Y18652D01*
X19564Y18652D01*
Y18652D01*
X19564Y18652D01*
X19564Y18652D01*
X19564Y18652D01*
X19564Y18652D01*
Y18652D01*
X19567Y18646D01*
X19567Y18645D01*
X19567Y18644D01*
X19569Y18640D01*
Y18640D01*
X19570Y18639D01*
X19571Y18636D01*
X19576Y18625D01*
X19601Y18563D01*
Y18563D01*
X19720Y18275D01*
X20070Y18130D01*
X20098Y18119D01*
X20476Y18275D01*
X20632Y18653D01*
X20621Y18681D01*
X20476Y19031D01*
X20188Y19150D01*
X20188Y19150D01*
X20130Y19174D01*
X20124Y19177D01*
X20118Y19179D01*
X20118Y19179D01*
X20118D01*
X20110Y19183D01*
X20109Y19183D01*
X20100Y19187D01*
Y19187D01*
X20099Y19187D01*
X20099Y19187D01*
X20099Y19187D01*
X20099Y19187D01*
X20099Y19187D01*
X20099Y19187D01*
X20099D01*
X20099Y19187D01*
X20099Y19187D01*
X20099Y19187D01*
X20099Y19187D01*
X20099D01*
X20099Y19187D01*
X20098Y19188D01*
X20083Y19182D01*
X20042Y19169D01*
X20036Y19174D01*
X20026Y19184D01*
X20012Y19198D01*
X19988Y19223D01*
X19975Y19235D01*
X19946Y19264D01*
X19936Y19275D01*
X19899Y19311D01*
X19640Y19570D01*
X19627Y19583D01*
X19625Y19586D01*
X19608Y19602D01*
X19585Y19626D01*
X19583Y19628D01*
X19563Y19648D01*
X19554Y19657D01*
X19553Y19657D01*
X19536Y19675D01*
X19533Y19678D01*
X19526Y19684D01*
X19487Y19724D01*
X19458Y19753D01*
X19458Y19753D01*
X19436Y19774D01*
X19428Y19782D01*
X19414Y19797D01*
X19414Y19797D01*
X19414D01*
Y19797D01*
X19414D01*
X19377Y19812D01*
X19376Y19812D01*
X19348Y19824D01*
X19324Y19834D01*
X19323Y19834D01*
X19306Y19841D01*
X19299Y19844D01*
X19299Y19844D01*
X19279Y19852D01*
X19278Y19853D01*
X19275Y19854D01*
X19275Y19854D01*
X19269Y19857D01*
X19251Y19864D01*
X19223Y19876D01*
X19220Y19877D01*
X19184Y19892D01*
X19184D01*
X19184D01*
X19184D01*
X19150D01*
X19116D01*
X19111D01*
X19068D01*
X18999D01*
X18996D01*
X18993D01*
X18982D01*
X18982D01*
X18964D01*
X18930D01*
X18929D01*
X18899D01*
X18893D01*
X18869D01*
X18841D01*
X15279D01*
X15143D01*
X15031Y19905D01*
X14536Y19963D01*
D01*
X14514Y19966D01*
X14511Y19980D01*
Y19980D01*
D01*
X14392Y19980D01*
X14392D01*
X13804Y19980D01*
X13804D01*
X13685D01*
D02*
G37*
G36*
X4048Y14271D02*
X4048Y14271D01*
X3953Y14231D01*
X3951Y14231D01*
X3739Y14143D01*
X3734Y14141D01*
X3730Y14139D01*
X3730D01*
D01*
X3730Y14139D01*
X3729Y14136D01*
X3729Y14135D01*
X3728Y14134D01*
X3670Y13993D01*
X3601Y13828D01*
X3600Y13825D01*
X3599Y13822D01*
D01*
Y13822D01*
X3602Y13815D01*
X3618Y13775D01*
X3730Y13504D01*
X4048Y13372D01*
X4068Y13381D01*
X4094Y13391D01*
X4121Y13403D01*
X4138Y13410D01*
X4153Y13416D01*
X4153D01*
X4154Y13416D01*
X4170Y13423D01*
X4180Y13427D01*
X4181Y13428D01*
X4184Y13429D01*
X4184Y13429D01*
X4184Y13429D01*
X4185Y13429D01*
X4185Y13429D01*
X4185Y13429D01*
X4185Y13429D01*
X4188Y13431D01*
X4190Y13431D01*
X4190Y13431D01*
X4192Y13432D01*
X4192Y13432D01*
X4193Y13433D01*
X4193Y13433D01*
X4194Y13433D01*
X4194Y13433D01*
X4195Y13433D01*
X4195Y13434D01*
X4196Y13434D01*
X4196Y13434D01*
X4200Y13435D01*
X4200Y13435D01*
X4200Y13436D01*
X4203Y13437D01*
X4218Y13443D01*
X4222Y13445D01*
X4231Y13448D01*
X4232Y13449D01*
X4232Y13449D01*
X4233Y13449D01*
X4239Y13452D01*
X4243Y13453D01*
X4243Y13453D01*
X4245Y13454D01*
X4247Y13455D01*
X4248Y13455D01*
X4250Y13456D01*
X4255Y13458D01*
X4259Y13460D01*
X4264Y13462D01*
X4264Y13462D01*
X4266Y13463D01*
X4267Y13463D01*
X4268Y13464D01*
X4270Y13464D01*
X4287Y13472D01*
X4297Y13476D01*
X4306Y13479D01*
X4312Y13482D01*
X4320Y13485D01*
X4335D01*
X4346D01*
X4374D01*
X4389D01*
X4409D01*
X4458D01*
X4485D01*
X4533D01*
X4565D01*
X4579D01*
X4603D01*
X8120D01*
X8257D01*
X8376Y13474D01*
X8687Y13445D01*
X8712Y13443D01*
X8723Y13442D01*
X8768Y13438D01*
X8815Y13433D01*
X8815D01*
X8849Y13430D01*
X8851Y13424D01*
X8851Y13422D01*
X8852Y13418D01*
X8853Y13415D01*
Y13415D01*
X8853Y13415D01*
Y13415D01*
Y13415D01*
D01*
X8853D01*
X9014Y13415D01*
X9015D01*
X9643Y13415D01*
Y13800D01*
X9643Y13800D01*
Y14205D01*
X9015D01*
Y14205D01*
Y14205D01*
X9015D01*
X9015D01*
X8853D01*
X8853D01*
D01*
Y14205D01*
X8853Y14205D01*
X8853Y14205D01*
X8849Y14190D01*
X8668Y14173D01*
X8376Y14146D01*
X8257Y14135D01*
X8121D01*
X4614D01*
X4573D01*
X4567D01*
X4558D01*
X4541D01*
X4541D01*
X4540D01*
X4507D01*
X4506D01*
X4505D01*
X4491D01*
X4481D01*
X4481D01*
X4476D01*
X4475D01*
X4451D01*
X4437D01*
X4410D01*
X4410D01*
X4402D01*
X4393D01*
X4392D01*
X4392D01*
X4391D01*
X4391D01*
X4386D01*
X4385D01*
X4384D01*
X4382D01*
X4382D01*
X4375D01*
X4374D01*
X4372D01*
X4368D01*
X4368Y14136D01*
X4368Y14136D01*
X4367Y14137D01*
X4367Y14137D01*
X4367Y14137D01*
X4367Y14137D01*
X4367Y14137D01*
X4366Y14139D01*
X4366Y14139D01*
X4366Y14139D01*
X4366D01*
Y14139D01*
X4364Y14140D01*
X4364Y14140D01*
X4363Y14141D01*
X4362Y14141D01*
X4361Y14141D01*
X4361Y14141D01*
X4361Y14141D01*
X4361Y14141D01*
X4360Y14141D01*
X4360Y14141D01*
X4360Y14142D01*
X4360Y14142D01*
X4359Y14142D01*
X4358Y14142D01*
X4358Y14142D01*
X4357Y14143D01*
X4357Y14143D01*
X4345Y14148D01*
X4343Y14149D01*
X4329Y14155D01*
X4323Y14157D01*
X4314Y14161D01*
X4284Y14173D01*
X4283Y14173D01*
X4259Y14184D01*
X4237Y14193D01*
X4232Y14194D01*
X4232Y14195D01*
X4232Y14195D01*
X4227Y14197D01*
X4225Y14198D01*
X4208Y14204D01*
X4189Y14213D01*
X4188Y14213D01*
D01*
X4105Y14247D01*
X4050Y14270D01*
X4048Y14271D01*
X4048D01*
X4048Y14271D01*
D02*
G37*
G36*
X55648Y14254D02*
X55618Y14241D01*
X55612Y14239D01*
X55610Y14238D01*
X55599Y14234D01*
X55558Y14216D01*
X55551Y14214D01*
X55471Y14180D01*
X55471Y14180D01*
D01*
X55470Y14179D01*
X55470Y14179D01*
X55470Y14178D01*
X55469Y14177D01*
X55435Y14094D01*
X55428Y14077D01*
X55424Y14066D01*
X55397Y14003D01*
X55648D01*
Y14254D01*
D02*
G37*
G36*
X50107Y17453D02*
X49389D01*
X49392Y17439D01*
X49393Y17433D01*
X49401Y17391D01*
X49405Y17371D01*
X49407Y17360D01*
X49415Y17320D01*
X49421Y17285D01*
X49422Y17279D01*
X49429Y17246D01*
X49431Y17232D01*
X49441Y17181D01*
X49443Y17168D01*
X49453Y17115D01*
X49460Y17082D01*
X49461Y17072D01*
X49462Y17070D01*
X49474Y17005D01*
X49475Y17003D01*
X49473Y16996D01*
X49463Y16941D01*
X49461Y16934D01*
X49461Y16929D01*
X49450Y16876D01*
X49443Y16838D01*
X49441Y16827D01*
X49429Y16762D01*
X49428Y16754D01*
X49415Y16689D01*
X49410Y16663D01*
X49408Y16649D01*
X49403Y16623D01*
X49401Y16614D01*
X49400Y16610D01*
X49397Y16593D01*
X49391Y16560D01*
X49385Y16531D01*
X49384Y16522D01*
X49384Y16522D01*
X49382Y16515D01*
X49382Y16513D01*
X49381Y16511D01*
X49381Y16508D01*
X49380Y16505D01*
X49380Y16505D01*
X49380Y16503D01*
Y16503D01*
X49380D01*
Y16503D01*
Y16503D01*
D01*
X49385Y16490D01*
X49386Y16490D01*
X49388Y16485D01*
X49388Y16485D01*
X49390Y16480D01*
X49391Y16478D01*
X49395Y16466D01*
X49397Y16463D01*
X49397Y16461D01*
X49399Y16457D01*
X49400Y16454D01*
X49402Y16449D01*
X49403Y16447D01*
X49404Y16444D01*
X49405Y16443D01*
X49412Y16425D01*
X49417Y16414D01*
X49421Y16405D01*
X49423Y16399D01*
X49423Y16382D01*
Y16381D01*
Y16362D01*
Y16350D01*
Y16343D01*
Y16319D01*
Y16314D01*
Y16307D01*
Y16299D01*
Y16286D01*
Y16286D01*
Y16285D01*
Y16283D01*
Y16275D01*
Y16259D01*
Y16258D01*
Y16255D01*
Y16242D01*
Y16214D01*
Y16205D01*
Y16170D01*
Y16163D01*
Y16149D01*
Y10345D01*
Y10301D01*
Y10282D01*
Y10280D01*
Y10241D01*
Y10223D01*
Y10213D01*
Y10213D01*
Y10213D01*
Y10208D01*
Y10204D01*
Y10204D01*
Y10203D01*
Y10202D01*
Y10175D01*
Y10160D01*
Y10146D01*
X49423Y10137D01*
X49423Y10137D01*
Y10124D01*
X49423Y10115D01*
Y10115D01*
X49423D01*
X49423Y10107D01*
Y10101D01*
Y10101D01*
X49419Y10089D01*
X49416Y10084D01*
X49412Y10073D01*
X49411Y10071D01*
X49411Y10071D01*
X49409Y10065D01*
X49408Y10063D01*
X49406Y10059D01*
X49405Y10056D01*
X49400Y10045D01*
X49399Y10041D01*
X49396Y10034D01*
X49395Y10033D01*
X49393Y10027D01*
X49393Y10027D01*
X49391Y10023D01*
X49390Y10021D01*
X49388Y10016D01*
X49388Y10015D01*
X49387Y10013D01*
X49387Y10012D01*
X49386Y10010D01*
X49385Y10008D01*
X49385Y10007D01*
X49384Y10007D01*
X49384Y10006D01*
X49384Y10006D01*
X49384Y10005D01*
X49383Y10003D01*
X49382Y10001D01*
X49382Y10000D01*
X49380Y9997D01*
X49380Y9997D01*
X49379Y9995D01*
X49379Y9994D01*
X49379Y9994D01*
X49379Y9994D01*
X49379Y9994D01*
X49379Y9994D01*
X49379Y9993D01*
X49378Y9991D01*
X49378Y9991D01*
X49376Y9988D01*
X49376Y9987D01*
X49376Y9987D01*
X49376Y9987D01*
X49376Y9987D01*
X49376Y9986D01*
X49376Y9986D01*
X49376Y9986D01*
X49375Y9985D01*
X49375Y9984D01*
X49374Y9983D01*
X49374Y9982D01*
X49374Y9981D01*
X49374Y9981D01*
X49373Y9980D01*
X49373Y9979D01*
X49372Y9977D01*
X49372Y9976D01*
X49371Y9973D01*
X49370Y9972D01*
X49370Y9971D01*
X49370Y9971D01*
X49369Y9970D01*
X49369Y9970D01*
X49369Y9970D01*
X49369Y9970D01*
X49369Y9969D01*
X49369Y9969D01*
X49369Y9969D01*
X49368Y9968D01*
X49367Y9964D01*
X49366Y9963D01*
X49366Y9962D01*
X49363Y9955D01*
X49361Y9950D01*
X49361Y9950D01*
X49360Y9947D01*
X49359Y9945D01*
X49356Y9939D01*
X49355Y9936D01*
X49355Y9936D01*
X49354Y9932D01*
X49352Y9929D01*
X49351Y9927D01*
X49349Y9922D01*
X49348Y9919D01*
X49344Y9909D01*
X49341Y9903D01*
X49341Y9903D01*
D01*
Y9903D01*
D01*
X49344Y9896D01*
X49345Y9894D01*
X49345Y9894D01*
X49370Y9834D01*
X49376Y9821D01*
X49376Y9821D01*
X49386Y9795D01*
X49389Y9789D01*
X49389Y9789D01*
X49417Y9721D01*
X49427Y9698D01*
X49428Y9694D01*
X49428Y9694D01*
X49440Y9664D01*
X49450Y9642D01*
X49459Y9619D01*
X49461Y9616D01*
X49461Y9616D01*
Y9616D01*
X49461Y9616D01*
X49461Y9615D01*
X49686Y9522D01*
X49714Y9511D01*
X49722Y9508D01*
X49727Y9505D01*
X49728Y9505D01*
X49748Y9497D01*
D01*
X49748D01*
D01*
X49748D01*
Y9497D01*
X49755Y9499D01*
X49756Y9500D01*
X49756Y9500D01*
X49759Y9501D01*
X49759Y9501D01*
X49762Y9502D01*
X49766Y9504D01*
X49857Y9542D01*
X49877Y9550D01*
X49948Y9580D01*
X50036Y9616D01*
X50036Y9616D01*
Y9616D01*
X50054Y9660D01*
X50080Y9724D01*
X50082Y9728D01*
X50085Y9736D01*
X50094Y9758D01*
X50100Y9771D01*
X50100Y9772D01*
X50103Y9779D01*
X50111Y9798D01*
X50113Y9802D01*
X50132Y9849D01*
X50139Y9865D01*
X50151Y9894D01*
X50155Y9903D01*
X50155D01*
Y9903D01*
Y9903D01*
X50150Y9915D01*
X50147Y9921D01*
X50147Y9921D01*
X50145Y9927D01*
X50143Y9931D01*
X50143Y9932D01*
X50141Y9936D01*
X50141Y9936D01*
X50138Y9943D01*
X50138Y9944D01*
X50136Y9947D01*
X50135Y9950D01*
X50135Y9950D01*
X50134Y9953D01*
X50131Y9960D01*
X50131Y9961D01*
X50130Y9962D01*
X50130Y9964D01*
X50128Y9968D01*
X50127Y9969D01*
X50127Y9969D01*
X50127Y9969D01*
X50127Y9970D01*
X50127Y9970D01*
X50127Y9970D01*
X50127Y9970D01*
X50127Y9970D01*
X50127Y9970D01*
X50127Y9971D01*
X50126Y9971D01*
X50126Y9971D01*
X50126Y9971D01*
X50126Y9972D01*
X50125Y9975D01*
X50125Y9975D01*
X50125Y9975D01*
X50124Y9976D01*
X50124Y9976D01*
X50123Y9979D01*
X50123Y9980D01*
X50123Y9980D01*
X50123Y9980D01*
X50122Y9981D01*
X50122Y9981D01*
X50122Y9982D01*
X50121Y9984D01*
X50121Y9985D01*
X50121Y9985D01*
X50121Y9985D01*
X50120Y9986D01*
X50120Y9986D01*
X50120Y9986D01*
X50120Y9987D01*
X50120Y9987D01*
X50120Y9987D01*
X50120Y9987D01*
X50120Y9987D01*
X50120Y9987D01*
X50119Y9988D01*
X50118Y9990D01*
X50118Y9991D01*
X50118Y9991D01*
X50117Y9993D01*
X50117Y9994D01*
X50117Y9994D01*
X50117Y9994D01*
X50117Y9994D01*
X50117Y9994D01*
X50117Y9994D01*
X50117Y9995D01*
X50115Y9999D01*
X50114Y10001D01*
X50114Y10001D01*
X50113Y10003D01*
X50112Y10005D01*
X50112Y10006D01*
X50112Y10007D01*
X50112Y10007D01*
X50112Y10007D01*
X50111Y10008D01*
X50110Y10011D01*
X50109Y10012D01*
X50109Y10013D01*
X50109Y10013D01*
X50108Y10015D01*
X50107Y10017D01*
X50106Y10021D01*
X50105Y10023D01*
X50105Y10023D01*
X50105Y10023D01*
X50103Y10027D01*
X50103Y10027D01*
X50098Y10040D01*
X50096Y10044D01*
X50091Y10056D01*
X50090Y10058D01*
X50089Y10063D01*
X50088Y10065D01*
X50085Y10071D01*
X50083Y10075D01*
X50079Y10084D01*
X50078Y10087D01*
X50078Y10088D01*
X50073Y10101D01*
Y10102D01*
Y10106D01*
Y10107D01*
Y10107D01*
Y10115D01*
Y10116D01*
X50073Y10123D01*
Y10124D01*
X50073Y10137D01*
Y10138D01*
X50073Y10146D01*
Y10146D01*
Y10160D01*
Y10175D01*
Y10202D01*
Y10203D01*
Y10204D01*
Y10204D01*
Y10208D01*
Y10213D01*
Y10213D01*
Y10213D01*
Y10223D01*
Y10241D01*
Y10280D01*
Y10282D01*
Y10301D01*
Y10345D01*
Y16149D01*
Y16163D01*
Y16170D01*
Y16205D01*
Y16214D01*
Y16242D01*
Y16255D01*
Y16258D01*
Y16259D01*
Y16275D01*
Y16283D01*
Y16285D01*
Y16286D01*
Y16286D01*
Y16299D01*
Y16307D01*
Y16314D01*
Y16319D01*
Y16343D01*
Y16350D01*
Y16362D01*
Y16381D01*
Y16382D01*
X50073Y16399D01*
X50075Y16405D01*
X50079Y16414D01*
X50084Y16425D01*
X50091Y16443D01*
X50092Y16444D01*
X50093Y16447D01*
X50094Y16449D01*
X50096Y16454D01*
X50097Y16457D01*
X50099Y16461D01*
X50099Y16463D01*
X50101Y16466D01*
X50106Y16478D01*
X50106Y16480D01*
X50108Y16485D01*
X50108Y16485D01*
X50110Y16490D01*
X50111Y16490D01*
X50116Y16503D01*
Y16503D01*
X50116D01*
X50116Y16503D01*
Y16503D01*
D01*
Y16503D01*
X50116Y16505D01*
X50116Y16505D01*
X50115Y16508D01*
X50115Y16511D01*
X50114Y16513D01*
X50114Y16515D01*
X50112Y16522D01*
X50112Y16522D01*
X50111Y16531D01*
X50105Y16560D01*
X50099Y16593D01*
X50096Y16610D01*
X50095Y16614D01*
X50093Y16623D01*
X50089Y16649D01*
X50086Y16663D01*
X50081Y16689D01*
X50069Y16754D01*
X50067Y16762D01*
X50055Y16827D01*
X50053Y16838D01*
X50046Y16876D01*
X50036Y16929D01*
X50035Y16934D01*
X50033Y16941D01*
X50023Y16996D01*
X50022Y17003D01*
X50022Y17005D01*
X50034Y17070D01*
X50035Y17072D01*
X50036Y17082D01*
X50043Y17115D01*
X50052Y17165D01*
X50053Y17168D01*
X50055Y17181D01*
X50065Y17232D01*
X50068Y17246D01*
X50072Y17269D01*
X50087Y17352D01*
X50089Y17360D01*
X50091Y17371D01*
X50095Y17391D01*
X50102Y17430D01*
X50107Y17453D01*
D02*
G37*
G36*
X21583Y16526D02*
X21583Y16526D01*
X21583D01*
X21549Y16512D01*
X21547Y16511D01*
X21544Y16510D01*
X21516Y16498D01*
X21502Y16492D01*
X21491Y16488D01*
X21490Y16487D01*
X21481Y16483D01*
X21468Y16478D01*
X21468D01*
X21465Y16477D01*
X21444Y16468D01*
X21443Y16467D01*
X21419Y16458D01*
X21390Y16446D01*
X21390Y16446D01*
X21353Y16430D01*
X21353Y16430D01*
D01*
X21353Y16430D01*
X21341Y16418D01*
X21329Y16407D01*
X21307Y16384D01*
X21275Y16352D01*
X21231Y16308D01*
X21228Y16306D01*
X21227Y16305D01*
X21224Y16301D01*
X21211Y16289D01*
X21211Y16289D01*
X21200Y16278D01*
X21178Y16255D01*
X21176Y16254D01*
X21156Y16233D01*
X21142Y16219D01*
X21137Y16214D01*
X21117Y16195D01*
X20294Y15372D01*
X20294Y15372D01*
X20262Y15339D01*
X20259Y15336D01*
X20249Y15326D01*
X20218Y15295D01*
X20205Y15282D01*
X20182Y15260D01*
X20169Y15246D01*
X20160Y15237D01*
X20153Y15231D01*
X20149Y15232D01*
X20148Y15232D01*
X20098Y15251D01*
X20089Y15247D01*
X20088Y15246D01*
X20088Y15246D01*
X20081Y15243D01*
Y15243D01*
X20080Y15243D01*
X20075Y15241D01*
X20068Y15238D01*
X20008Y15213D01*
X20008D01*
X20007Y15213D01*
X19720Y15094D01*
X19601Y14806D01*
X19601Y14806D01*
X19576Y14745D01*
X19571Y14733D01*
X19570Y14731D01*
X19569Y14730D01*
D01*
X19567Y14725D01*
X19567Y14723D01*
X19564Y14718D01*
Y14718D01*
X19564Y14718D01*
X19564Y14718D01*
X19564Y14718D01*
X19564Y14717D01*
Y14717D01*
X19564Y14717D01*
Y14717D01*
X19564Y14717D01*
X19564Y14717D01*
X19564Y14717D01*
X19564Y14717D01*
X19564Y14717D01*
X19564Y14716D01*
X19569Y14701D01*
X19582Y14660D01*
X19578Y14655D01*
X19569Y14647D01*
X19559Y14636D01*
X19541Y14618D01*
X19525Y14602D01*
X19490Y14567D01*
X19486Y14563D01*
X19475Y14552D01*
X19445Y14522D01*
X19200Y14277D01*
X19171Y14248D01*
X19162Y14240D01*
X19157Y14234D01*
X19157Y14234D01*
X19142Y14219D01*
X19134Y14211D01*
X19129Y14206D01*
X19126Y14204D01*
X19126Y14204D01*
X19111Y14188D01*
X19105Y14182D01*
X19102Y14179D01*
X19102Y14179D01*
X19101Y14179D01*
X19101Y14178D01*
X19101Y14178D01*
X19100Y14177D01*
X19100Y14177D01*
X19100Y14177D01*
X19099Y14177D01*
X19099Y14177D01*
X19099Y14177D01*
X19099Y14176D01*
X19099Y14176D01*
X19099Y14176D01*
X19080Y14157D01*
X19076Y14153D01*
X19069Y14146D01*
X19066Y14143D01*
X19066Y14143D01*
X19066Y14143D01*
X19065Y14142D01*
X19064Y14141D01*
X19056Y14133D01*
X19056Y14133D01*
X19056Y14133D01*
X19054Y14131D01*
X19051Y14128D01*
X19043D01*
X19042D01*
X19041D01*
X19040D01*
X19027D01*
X19026Y14128D01*
X19026D01*
X19026D01*
X19026D01*
X19025Y14128D01*
X19025Y14128D01*
X19025D01*
X19025D01*
X19025D01*
X19023Y14128D01*
X19012Y14128D01*
X19009D01*
X19008D01*
X19007D01*
X18983Y14128D01*
X18982D01*
X18981Y14128D01*
X18981D01*
X18981D01*
X18978Y14128D01*
X18977D01*
X18973D01*
X18968Y14128D01*
X18967D01*
X18967D01*
X18947Y14128D01*
X18946Y14128D01*
X18946D01*
X18944D01*
X18944D01*
X18944D01*
X18938D01*
X18938D01*
X18928D01*
X18918D01*
X18875D01*
X18873D01*
X18863D01*
X18813D01*
X14894D01*
X14734D01*
X14678D01*
X14595D01*
X14589D01*
X14570D01*
X14569D01*
X14566D01*
X14564D01*
X14554D01*
X14553D01*
X14546D01*
X14545D01*
X14543D01*
X14540Y14132D01*
X14539Y14134D01*
X14534Y14146D01*
X14534Y14146D01*
X14531Y14150D01*
X14528Y14152D01*
X14528Y14152D01*
X14520Y14161D01*
X14513Y14167D01*
X14510Y14170D01*
X14507Y14173D01*
X14504Y14176D01*
X14502Y14178D01*
X14502Y14178D01*
X14502Y14178D01*
X14502Y14178D01*
X14502Y14178D01*
X14502Y14178D01*
X14502Y14178D01*
X14502Y14178D01*
X14501Y14179D01*
X14501Y14179D01*
X14501Y14179D01*
X14500Y14180D01*
X14500Y14180D01*
X14500Y14180D01*
X14497Y14183D01*
X14496Y14184D01*
X14496Y14184D01*
X14494Y14186D01*
X14494Y14186D01*
X14494Y14186D01*
X14491Y14189D01*
X14490Y14191D01*
X14490Y14191D01*
X14489Y14191D01*
X14488Y14192D01*
X14488Y14192D01*
X14488Y14192D01*
X14488Y14192D01*
X14488Y14192D01*
X14488Y14193D01*
X14488Y14193D01*
X14488Y14193D01*
X14488Y14193D01*
D01*
X14488Y14193D01*
X14488Y14193D01*
Y14193D01*
X14488Y14193D01*
X14488Y14193D01*
X14488Y14193D01*
D01*
X14488Y14193D01*
X14488Y14193D01*
X14488D01*
X14488Y14193D01*
D01*
X14488Y14193D01*
X14488D01*
Y14193D01*
X14488Y14193D01*
X14488Y14193D01*
X14488Y14193D01*
Y14193D01*
Y14193D01*
X14488Y14193D01*
X14488Y14193D01*
X14488Y14193D01*
X14488Y14193D01*
X14488Y14193D01*
Y14193D01*
Y14193D01*
X14488Y14193D01*
Y14193D01*
X14488Y14193D01*
Y14193D01*
X14488D01*
Y14193D01*
X14488Y14193D01*
X14488Y14193D01*
Y14193D01*
X14488Y14193D01*
X14488D01*
Y14193D01*
X14488D01*
X14488Y14193D01*
X14488Y14193D01*
X14488Y14193D01*
Y14193D01*
X14487Y14193D01*
X14487Y14193D01*
X14487Y14193D01*
X14487Y14193D01*
X14487Y14193D01*
X14487Y14193D01*
D01*
X14487Y14193D01*
X14487D01*
X14486Y14193D01*
X14486Y14193D01*
X14485Y14193D01*
X14485Y14194D01*
X14485Y14194D01*
X14457Y14205D01*
X14443Y14211D01*
X14442Y14212D01*
X14434Y14215D01*
X14433Y14215D01*
X14433Y14215D01*
X14433Y14215D01*
X14411Y14224D01*
X14409Y14225D01*
X14409Y14225D01*
X14404Y14227D01*
X14404Y14227D01*
X14404Y14227D01*
X14404D01*
X14400Y14229D01*
X14397Y14230D01*
X14396Y14231D01*
X14396Y14231D01*
X14394Y14231D01*
X14394Y14231D01*
X14394Y14231D01*
X14394D01*
X14394Y14231D01*
X14394Y14231D01*
X14394Y14231D01*
X14394D01*
X14394D01*
X14366Y14243D01*
X14346Y14251D01*
X14342Y14253D01*
X14340Y14254D01*
X14329Y14258D01*
X14327Y14259D01*
X14327Y14259D01*
X14327Y14259D01*
X14316Y14264D01*
X14313Y14265D01*
X14312Y14265D01*
X14311Y14266D01*
X14308Y14267D01*
X14307Y14267D01*
X14307Y14267D01*
X14307D01*
X14300Y14270D01*
X14299Y14271D01*
X14298Y14271D01*
X14297Y14271D01*
X14295Y14272D01*
X14295Y14272D01*
X14295Y14272D01*
X14295D01*
X14294Y14273D01*
X14294Y14273D01*
X14294Y14273D01*
X14294D01*
X14294D01*
X14279Y14279D01*
X14278Y14280D01*
X14276Y14280D01*
X14275Y14281D01*
X14271Y14282D01*
X14270Y14283D01*
X14270Y14283D01*
X14270D01*
X14266Y14284D01*
X14265Y14285D01*
X14265Y14285D01*
X14265Y14285D01*
X14263Y14286D01*
X14263Y14286D01*
X14263Y14286D01*
D01*
X14260Y14287D01*
X14260Y14287D01*
X14259Y14287D01*
X14259Y14287D01*
X14258Y14288D01*
X14258Y14288D01*
X14258Y14288D01*
D01*
X14258Y14288D01*
X14258Y14288D01*
X14258Y14288D01*
X14258D01*
X14258Y14288D01*
X14258Y14288D01*
X14258Y14288D01*
X14258Y14288D01*
X14258D01*
X14258Y14288D01*
X14258Y14288D01*
X14258D01*
X14258Y14288D01*
X14258Y14288D01*
X14258Y14288D01*
X14258Y14288D01*
X14258Y14288D01*
Y14288D01*
X14258Y14288D01*
X14258Y14288D01*
X14258D01*
X14258Y14288D01*
X14258D01*
D01*
X14249Y14285D01*
X14240Y14281D01*
X14240D01*
X14137Y14245D01*
X14098Y14251D01*
X14095Y14249D01*
X14067Y14238D01*
X14039Y14226D01*
X14039D01*
X14036Y14225D01*
X14008Y14213D01*
X13966Y14196D01*
X13964Y14195D01*
X13939Y14185D01*
X13901Y14169D01*
X13898Y14168D01*
X13896Y14167D01*
X13879Y14160D01*
X13871Y14157D01*
X13846Y14146D01*
X13844Y14145D01*
X13824Y14137D01*
X13809Y14131D01*
X13782Y14120D01*
D01*
X13782Y14120D01*
X13782D01*
Y14120D01*
X13781Y14119D01*
X13781Y14119D01*
X13781Y14119D01*
X13780Y14115D01*
X13767Y14084D01*
X13661Y13828D01*
X13651Y13805D01*
X13651Y13803D01*
D01*
Y13803D01*
Y13803D01*
X13651D01*
Y13803D01*
X13651Y13803D01*
X13681Y13730D01*
X13782Y13487D01*
X14098Y13356D01*
X14098D01*
X14098Y13356D01*
X14098D01*
X14136Y13372D01*
X14163Y13383D01*
X14163D01*
X14216Y13405D01*
X14241Y13415D01*
X14253Y13420D01*
X14289Y13424D01*
X14329Y13429D01*
X14357Y13432D01*
X14364Y13433D01*
X14380Y13435D01*
X14387Y13435D01*
X14390Y13436D01*
X14401Y13437D01*
X14402Y13437D01*
X14408Y13438D01*
X14409Y13438D01*
X14409Y13438D01*
X14409Y13438D01*
X14409Y13438D01*
X14409D01*
X14409D01*
X14409Y13438D01*
X14409Y13438D01*
X14409Y13438D01*
X14412Y13438D01*
X14422Y13439D01*
X14449Y13443D01*
X14603Y13460D01*
X14611Y13461D01*
X14626Y13463D01*
X14646Y13465D01*
X14647Y13465D01*
X14655Y13466D01*
X14660Y13467D01*
X14762Y13478D01*
X14763D01*
X14772D01*
X14774D01*
X14783D01*
X14841D01*
X18836D01*
X18866D01*
X18893D01*
X18897D01*
X18926D01*
X18927D01*
X18960D01*
X18978D01*
X18987D01*
X18990D01*
X18992D01*
X19064D01*
X19111D01*
X19115D01*
X19149D01*
X19149D01*
X19185Y13478D01*
X19185Y13478D01*
X19185D01*
D01*
X19185D01*
X19185D01*
X19185Y13478D01*
X19218Y13492D01*
X19221Y13493D01*
X19224Y13495D01*
X19252Y13506D01*
X19265Y13512D01*
X19277Y13516D01*
X19279Y13517D01*
X19280Y13518D01*
X19300Y13526D01*
X19300Y13526D01*
X19301Y13527D01*
X19324Y13536D01*
X19325Y13536D01*
X19349Y13546D01*
X19378Y13558D01*
X19378Y13558D01*
X19415Y13574D01*
X19415D01*
X19415Y13574D01*
X19415Y13574D01*
X19425Y13584D01*
X19437Y13596D01*
X19458Y13617D01*
X19488Y13646D01*
X19527Y13686D01*
X19536Y13695D01*
X19537Y13696D01*
X19554Y13713D01*
X19555Y13714D01*
X19564Y13723D01*
X19583Y13742D01*
X19585Y13744D01*
X19608Y13767D01*
X19627Y13786D01*
X19627Y13786D01*
X19641Y13800D01*
X19900Y14059D01*
X19933Y14092D01*
X19934Y14093D01*
X19946Y14105D01*
X19975Y14134D01*
X19988Y14147D01*
X20012Y14171D01*
X20026Y14185D01*
X20036Y14195D01*
X20042Y14201D01*
X20049Y14200D01*
X20098Y14182D01*
X20099Y14182D01*
X20099Y14182D01*
X20099Y14182D01*
X20099Y14182D01*
X20099D01*
X20099Y14182D01*
X20099Y14182D01*
X20099Y14182D01*
X20099Y14182D01*
Y14182D01*
X20099Y14182D01*
X20099Y14182D01*
X20099Y14182D01*
X20100Y14182D01*
X20100D01*
D01*
X20109Y14186D01*
X20110Y14187D01*
X20110Y14187D01*
X20118Y14190D01*
D01*
X20118Y14190D01*
X20124Y14192D01*
X20130Y14195D01*
X20188Y14219D01*
X20188D01*
X20476Y14338D01*
X20595Y14626D01*
X20595Y14626D01*
X20620Y14687D01*
X20624Y14697D01*
X20626Y14700D01*
X20626Y14701D01*
D01*
X20629Y14707D01*
X20629Y14708D01*
X20632Y14715D01*
Y14715D01*
D01*
X20632Y14715D01*
X20632Y14715D01*
X20632Y14715D01*
X20632Y14715D01*
X20632Y14715D01*
X20632Y14715D01*
X20632Y14715D01*
D01*
X20632Y14716D01*
X20632Y14716D01*
X20632Y14716D01*
X20629Y14726D01*
X20614Y14772D01*
X20619Y14777D01*
X20627Y14786D01*
X20639Y14798D01*
X20658Y14817D01*
X20673Y14832D01*
X20708Y14867D01*
X20713Y14872D01*
X20721Y14880D01*
X20753Y14912D01*
X21561Y15720D01*
X21593Y15752D01*
X21601Y15760D01*
X21605Y15764D01*
X21605Y15764D01*
X21626Y15785D01*
X21636Y15795D01*
X21640Y15799D01*
X21642Y15801D01*
X21642Y15801D01*
X21642Y15801D01*
X21658Y15817D01*
X21664Y15823D01*
X21667Y15826D01*
X21667Y15826D01*
X21668Y15827D01*
X21668Y15827D01*
X21668Y15827D01*
X21668Y15827D01*
X21668Y15827D01*
X21669Y15827D01*
X21669Y15827D01*
X21669Y15827D01*
X21669Y15827D01*
X21669Y15827D01*
X21669Y15828D01*
X21669Y15828D01*
X21669Y15828D01*
X21669Y15828D01*
X21687Y15846D01*
X21692Y15851D01*
X21699Y15858D01*
X21702Y15861D01*
X21702Y15861D01*
X21702Y15861D01*
X21702Y15861D01*
X21703Y15862D01*
X21704Y15863D01*
X21712Y15870D01*
X21712Y15871D01*
X21712Y15871D01*
X21712Y15871D01*
X21714Y15873D01*
X21717Y15876D01*
X21724D01*
X21725D01*
X21726D01*
X21727D01*
X21739D01*
X21740Y15876D01*
X21740D01*
X21740D01*
X21741D01*
X21743Y15876D01*
X21743Y15876D01*
X21743D01*
X21743D01*
X21743D01*
X21744Y15876D01*
X21755Y15876D01*
X21759D01*
X21760D01*
X21761D01*
X21785Y15876D01*
X21786D01*
X21786Y15876D01*
X21786D01*
X21786D01*
X21788Y15876D01*
X21789D01*
X21793D01*
X21800Y15876D01*
X21800D01*
X21800D01*
X21821Y15876D01*
X21822D01*
X21822Y15876D01*
X21824D01*
X21824D01*
X21824D01*
X21829D01*
X21829D01*
X21840D01*
X21849D01*
X21891D01*
X21893D01*
X21904D01*
X21953D01*
X24271D01*
X24320D01*
X24331D01*
X24333D01*
X24375D01*
X24384D01*
X24395D01*
X24395D01*
X24400D01*
X24400D01*
X24400D01*
X24402D01*
X24402Y15876D01*
X24402Y15876D01*
X24424D01*
X24424D01*
X24424D01*
X24431Y15876D01*
X24436D01*
X24436D01*
X24438Y15876D01*
X24438D01*
X24438D01*
X24439D01*
X24439D01*
X24463D01*
X24464D01*
X24464D01*
X24469D01*
X24480Y15876D01*
X24481Y15876D01*
X24481D01*
X24481D01*
X24481D01*
X24481Y15876D01*
X24484Y15876D01*
X24484D01*
X24484D01*
X24485D01*
X24486Y15876D01*
X24497D01*
X24499D01*
X24499D01*
X24501D01*
X24507D01*
X24510Y15873D01*
X24512Y15871D01*
X24512Y15871D01*
X24512Y15871D01*
X24513Y15870D01*
X24520Y15863D01*
X24521Y15862D01*
X24522Y15861D01*
X24522Y15861D01*
X24522Y15861D01*
X24522Y15861D01*
X24525Y15858D01*
X24532Y15851D01*
X24537Y15846D01*
X24555Y15828D01*
X24555Y15827D01*
X24556Y15827D01*
X24556Y15827D01*
X24556Y15827D01*
X24556Y15827D01*
X24557Y15826D01*
X24557Y15826D01*
X24560Y15823D01*
X24566Y15817D01*
X24582Y15801D01*
X24582Y15801D01*
X24582Y15801D01*
X24584Y15799D01*
X24588Y15795D01*
X24599Y15784D01*
X24621Y15762D01*
X24621Y15762D01*
X24625Y15758D01*
X24633Y15750D01*
X24665Y15718D01*
X25748Y14634D01*
X26133Y14006D01*
Y14006D01*
X26223Y13256D01*
Y12260D01*
Y12072D01*
X26155Y12056D01*
X26223Y12056D01*
Y12056D01*
X26085Y12056D01*
X26054D01*
Y11069D01*
X27042D01*
Y12056D01*
X27042D01*
X27011Y12087D01*
X27011D01*
X26873Y12225D01*
Y13256D01*
X26963Y14006D01*
X26963Y14006D01*
D01*
X26963D01*
X26963Y14006D01*
X27082Y14294D01*
X27004Y14483D01*
X26926Y14672D01*
X26638Y14791D01*
X26638Y14791D01*
X26579Y14816D01*
X26571Y14819D01*
X26566Y14821D01*
X26566Y14821D01*
X26566D01*
X26559Y14824D01*
X26558Y14824D01*
X26550Y14828D01*
Y14828D01*
X26549Y14828D01*
X26549Y14828D01*
X26549Y14828D01*
X26549Y14828D01*
X26549Y14828D01*
X26549Y14828D01*
X26549Y14828D01*
X26549Y14828D01*
X26549Y14828D01*
X26549D01*
X26549Y14828D01*
X26549Y14828D01*
X26548Y14828D01*
X26533Y14823D01*
X26492Y14810D01*
X26486Y14815D01*
X26477Y14824D01*
X26464Y14837D01*
X26442Y14859D01*
X26429Y14873D01*
X26398Y14904D01*
X26388Y14913D01*
X26386Y14915D01*
X26351Y14950D01*
X25109Y16192D01*
X25088Y16213D01*
X25082Y16219D01*
X25069Y16232D01*
X25049Y16252D01*
X25048Y16253D01*
X25025Y16276D01*
X25014Y16288D01*
X25014Y16288D01*
X25003Y16298D01*
X24999Y16302D01*
X24998Y16304D01*
X24997Y16305D01*
X24951Y16350D01*
X24918Y16383D01*
X24895Y16406D01*
X24883Y16418D01*
X24871Y16430D01*
X24871Y16430D01*
D01*
X24871D01*
Y16430D01*
X24871D01*
X24835Y16445D01*
X24834Y16446D01*
X24805Y16458D01*
X24783Y16467D01*
X24781Y16468D01*
X24780Y16468D01*
X24759Y16477D01*
X24756Y16478D01*
X24756Y16478D01*
X24746Y16482D01*
X24733Y16487D01*
X24733Y16488D01*
X24722Y16492D01*
X24708Y16498D01*
X24679Y16510D01*
X24677Y16511D01*
X24675Y16512D01*
X24641Y16526D01*
X24641D01*
X24641D01*
X24641D01*
X24613D01*
X24605D01*
X24571D01*
X24571D01*
X24520D01*
X24449D01*
X24446D01*
X24443D01*
X24433D01*
X24433D01*
X24416D01*
X24383D01*
X24382D01*
X24354D01*
X24345D01*
X24326D01*
X24292D01*
X21932D01*
X21898D01*
X21878D01*
X21870D01*
X21842D01*
X21841D01*
X21808D01*
X21790D01*
X21790D01*
X21781D01*
X21777D01*
X21775D01*
X21704D01*
X21653D01*
X21653D01*
X21619D01*
X21615D01*
X21583Y16526D01*
D02*
G37*
G36*
X40448Y16203D02*
X40118D01*
X40128Y16179D01*
X40129Y16177D01*
X40133Y16168D01*
X40143Y16144D01*
X40145Y16139D01*
X40150Y16126D01*
X40150D01*
X40151Y16125D01*
X40151Y16125D01*
X40151Y16124D01*
X40151Y16124D01*
X40155Y16115D01*
X40155Y16114D01*
X40155Y16113D01*
X40156Y16113D01*
X40160Y16103D01*
X40162Y16098D01*
X40162Y16098D01*
X40162Y16098D01*
X40162Y16098D01*
X40162Y16098D01*
X40162Y16098D01*
X40162Y16098D01*
X40162Y16096D01*
X40163Y16096D01*
X40163Y16095D01*
X40181Y16053D01*
X40183Y16046D01*
X40203Y15999D01*
X40215Y15970D01*
X40215D01*
Y15970D01*
D01*
X40215Y15970D01*
X40215Y15970D01*
X40217Y15969D01*
X40219Y15968D01*
X40219Y15968D01*
X40219Y15968D01*
X40220Y15968D01*
X40276Y15944D01*
X40365Y15908D01*
X40383Y15900D01*
X40399Y15894D01*
X40402Y15892D01*
X40448Y15873D01*
Y16203D01*
D02*
G37*
G36*
X40878D02*
X40548D01*
Y15873D01*
X40551Y15875D01*
X40557Y15877D01*
X40582Y15887D01*
X40597Y15893D01*
X40600Y15895D01*
X40606Y15897D01*
X40610Y15899D01*
X40626Y15906D01*
X40626Y15906D01*
X40626Y15906D01*
X40627Y15906D01*
X40627Y15906D01*
X40628Y15906D01*
X40630Y15907D01*
X40632Y15908D01*
X40639Y15911D01*
X40644Y15913D01*
X40647Y15914D01*
X40653Y15917D01*
X40653Y15917D01*
X40653Y15917D01*
X40653Y15917D01*
X40653Y15917D01*
X40653Y15917D01*
X40653Y15917D01*
X40653Y15917D01*
X40654Y15917D01*
X40667Y15922D01*
X40677Y15927D01*
X40709Y15940D01*
X40732Y15950D01*
X40745Y15955D01*
X40781Y15970D01*
Y15970D01*
X40781D01*
D01*
X40781Y15970D01*
X40781Y15970D01*
X40782Y15972D01*
X40783Y15974D01*
X40783Y15974D01*
X40784Y15976D01*
X40812Y16044D01*
X40822Y16069D01*
X40843Y16119D01*
X40862Y16165D01*
X40878Y16203D01*
D02*
G37*
G36*
X55748Y14254D02*
Y14003D01*
X55999D01*
X55993Y14017D01*
X55992Y14018D01*
X55987Y14032D01*
X55987Y14032D01*
X55983Y14042D01*
X55981Y14046D01*
X55980Y14049D01*
X55978Y14052D01*
X55977Y14057D01*
X55974Y14062D01*
X55973Y14065D01*
X55973Y14066D01*
X55973Y14066D01*
X55973Y14066D01*
X55973Y14066D01*
X55972Y14068D01*
X55971Y14071D01*
X55970Y14072D01*
X55970Y14072D01*
X55970Y14073D01*
X55970Y14073D01*
X55964Y14087D01*
X55958Y14102D01*
X55955Y14110D01*
X55955Y14110D01*
X55955Y14110D01*
X55954Y14111D01*
X55954Y14112D01*
X55953Y14112D01*
X55948Y14125D01*
X55943Y14137D01*
X55938Y14149D01*
X55938Y14150D01*
X55938Y14150D01*
X55934Y14160D01*
X55934Y14160D01*
X55930Y14170D01*
X55926Y14179D01*
X55925Y14180D01*
Y14180D01*
X55925D01*
Y14180D01*
X55925D01*
D01*
X55856Y14209D01*
X55855Y14210D01*
X55835Y14218D01*
X55834Y14218D01*
X55834Y14218D01*
X55788Y14237D01*
X55787Y14238D01*
X55786Y14238D01*
X55770Y14245D01*
X55767Y14246D01*
X55767Y14246D01*
X55748Y14254D01*
D02*
G37*
G36*
X32498Y14828D02*
X32498D01*
D01*
X32498D01*
X32498D01*
X32120Y14672D01*
X32120Y14672D01*
X32108Y14644D01*
X32108D01*
X31964Y14294D01*
Y14294D01*
X32083Y14006D01*
X32083Y14006D01*
X32096Y13975D01*
X32106Y13949D01*
X32111Y13938D01*
X32113Y13933D01*
X32113Y13933D01*
X32116Y13927D01*
X32116Y13926D01*
X32116Y13925D01*
X32119Y13918D01*
X32120Y13918D01*
X32120Y13918D01*
X32120Y13918D01*
X32120Y13917D01*
X32120Y13917D01*
X32120Y13917D01*
X32120Y13917D01*
X32120Y13916D01*
X32123Y13915D01*
X32123Y13915D01*
X32164Y13895D01*
X32173Y13890D01*
X32173Y13889D01*
X32173Y13888D01*
X32173Y13883D01*
Y13878D01*
Y13870D01*
Y13852D01*
Y13823D01*
Y13803D01*
Y13757D01*
Y13747D01*
Y13740D01*
Y13689D01*
Y12260D01*
Y12072D01*
X32105Y12056D01*
X32173Y12056D01*
Y12056D01*
X32035Y12056D01*
X32004D01*
Y11666D01*
X32004Y11666D01*
D01*
Y11666D01*
X32004Y11590D01*
Y11576D01*
Y11567D01*
X32004Y11563D01*
Y11560D01*
X32004Y11560D01*
Y11555D01*
X32004Y11553D01*
X32004Y11553D01*
X32004Y11536D01*
Y11528D01*
X31999Y11522D01*
X31991Y11514D01*
X31979Y11503D01*
X31960Y11484D01*
X31945Y11468D01*
X31909Y11433D01*
X31895Y11419D01*
X31880Y11403D01*
X31865Y11388D01*
X30165Y9688D01*
X30131Y9655D01*
X30124Y9647D01*
X30120Y9644D01*
X30120Y9644D01*
X30097Y9620D01*
X30085Y9608D01*
X30085Y9608D01*
X30081Y9604D01*
X30079Y9603D01*
X30079Y9603D01*
X30079Y9603D01*
X30063Y9587D01*
X30058Y9581D01*
X30055Y9578D01*
X30054Y9578D01*
X30053Y9577D01*
X30053Y9577D01*
X30053Y9577D01*
X30053Y9577D01*
X30053Y9576D01*
X30053Y9576D01*
X30035Y9558D01*
X30034Y9558D01*
X30034Y9558D01*
X30030Y9553D01*
X30023Y9546D01*
X30020Y9544D01*
X30020Y9543D01*
X30020Y9543D01*
X30020Y9543D01*
X30019Y9543D01*
X30018Y9541D01*
X30010Y9534D01*
X30010Y9533D01*
X30010Y9533D01*
X30008Y9532D01*
X30004Y9528D01*
X29999D01*
X29997D01*
X29997D01*
X29995D01*
X29984D01*
X29983D01*
X29982Y9528D01*
X29982D01*
X29982D01*
X29979Y9528D01*
X29978Y9528D01*
X29978D01*
X29978D01*
X29978D01*
X29978Y9528D01*
X29968Y9528D01*
X29962D01*
X29962D01*
X29961D01*
X29937Y9528D01*
X29936D01*
X29936Y9528D01*
X29936D01*
X29935D01*
X29934Y9528D01*
X29933D01*
X29929D01*
X29921Y9528D01*
X29921D01*
X29900Y9528D01*
X29900D01*
X29899Y9528D01*
X29897D01*
X29897D01*
X29892D01*
X29892D01*
X29879D01*
X29873D01*
X29834D01*
X29830D01*
X29820D01*
X29771D01*
X18424D01*
X18380D01*
X18363D01*
X18360D01*
X18319D01*
X18318D01*
X18315D01*
X18301D01*
X18297D01*
X18297D01*
X18295D01*
X18286D01*
X18286D01*
X18281D01*
X18260D01*
X18246D01*
X18246D01*
X18234D01*
X18226Y9528D01*
X18226D01*
Y9528D01*
X18211D01*
X18199Y9528D01*
X18198D01*
X18198Y9528D01*
X18189Y9528D01*
X18181D01*
X18181D01*
X18171Y9532D01*
X18165Y9534D01*
X18155Y9539D01*
X18154Y9539D01*
X18154D01*
X18147Y9542D01*
X18143Y9544D01*
X18139Y9545D01*
X18135Y9547D01*
X18126Y9551D01*
X18121Y9553D01*
X18115Y9555D01*
X18109Y9557D01*
X18109Y9558D01*
X18106Y9559D01*
X18104Y9560D01*
X18100Y9561D01*
X18099Y9562D01*
X18097Y9563D01*
X18096Y9563D01*
X18094Y9564D01*
X18093Y9564D01*
X18092Y9565D01*
X18092Y9565D01*
X18091Y9565D01*
X18090Y9565D01*
X18088Y9567D01*
X18086Y9567D01*
X18084Y9568D01*
X18082Y9569D01*
X18080Y9570D01*
X18080Y9570D01*
X18078Y9570D01*
X18078Y9571D01*
X18077Y9571D01*
X18077Y9571D01*
X18075Y9572D01*
X18075Y9572D01*
X18075Y9572D01*
X18075Y9572D01*
X18075Y9572D01*
X18075Y9572D01*
X18075Y9572D01*
X18075Y9572D01*
X18075Y9572D01*
X18074Y9572D01*
X18073Y9572D01*
X18073Y9573D01*
X18071Y9573D01*
X18070Y9574D01*
X18070Y9574D01*
X18069Y9574D01*
X18069Y9574D01*
X18069Y9574D01*
X18068Y9575D01*
X18068Y9575D01*
X18066Y9576D01*
X18065Y9576D01*
X18063Y9577D01*
X18062Y9577D01*
X18061Y9578D01*
X18061Y9578D01*
X18060Y9578D01*
X18060Y9578D01*
X18059Y9578D01*
X18059Y9579D01*
X18058Y9579D01*
X18057Y9579D01*
X18056Y9579D01*
X18052Y9581D01*
X18051Y9582D01*
X18050Y9582D01*
X18044Y9585D01*
X18039Y9587D01*
X18039Y9587D01*
X18035Y9588D01*
X18035Y9588D01*
X18034Y9589D01*
X18030Y9590D01*
X18027Y9592D01*
X18027Y9592D01*
X18025Y9592D01*
X18025Y9593D01*
X18024Y9593D01*
X18022Y9594D01*
X18020Y9595D01*
X18020Y9595D01*
X18012Y9598D01*
X18012Y9598D01*
X18004Y9601D01*
X17998Y9604D01*
X17998D01*
D01*
X17998Y9604D01*
D01*
X17998D01*
X17998D01*
X17914Y9569D01*
X17898Y9562D01*
X17898Y9562D01*
X17822Y9531D01*
X17796Y9520D01*
X17792Y9518D01*
X17792Y9518D01*
X17763Y9506D01*
X17741Y9497D01*
X17718Y9488D01*
X17715Y9486D01*
X17715Y9486D01*
X17715D01*
X17715Y9486D01*
X17715Y9486D01*
X17623Y9264D01*
X17611Y9236D01*
X17608Y9228D01*
X17606Y9224D01*
X17605Y9222D01*
X17598Y9203D01*
D01*
Y9203D01*
D01*
Y9203D01*
X17598D01*
X17600Y9197D01*
X17601Y9195D01*
X17601Y9195D01*
X17602Y9193D01*
X17603Y9190D01*
X17605Y9186D01*
X17639Y9103D01*
X17649Y9079D01*
X17680Y9004D01*
X17715Y8920D01*
X17715Y8920D01*
X17715D01*
X17758Y8902D01*
X17820Y8876D01*
X17846Y8866D01*
X17862Y8859D01*
X17869Y8856D01*
X17873Y8854D01*
X17887Y8849D01*
X17998Y8803D01*
D01*
X17998Y8803D01*
X17998D01*
X17998D01*
X18009Y8807D01*
X18011Y8808D01*
X18020Y8812D01*
X18020Y8812D01*
X18023Y8813D01*
X18024Y8813D01*
X18024Y8813D01*
X18025Y8814D01*
X18027Y8815D01*
X18027Y8815D01*
X18033Y8817D01*
X18034Y8817D01*
X18035Y8818D01*
X18035Y8818D01*
X18039Y8820D01*
X18039Y8820D01*
X18042Y8821D01*
X18048Y8823D01*
X18050Y8824D01*
X18051Y8825D01*
X18052Y8825D01*
X18056Y8827D01*
X18057Y8827D01*
X18057Y8827D01*
X18058Y8828D01*
X18059Y8828D01*
X18059Y8828D01*
X18060Y8828D01*
X18060Y8828D01*
X18061Y8829D01*
X18061Y8829D01*
X18061Y8829D01*
X18062Y8829D01*
X18065Y8830D01*
X18066Y8831D01*
X18066Y8831D01*
X18068Y8832D01*
X18068Y8832D01*
X18069Y8832D01*
X18069Y8832D01*
X18069Y8832D01*
X18070Y8832D01*
X18070Y8833D01*
X18072Y8833D01*
X18073Y8834D01*
X18073Y8834D01*
X18074Y8834D01*
X18075Y8834D01*
X18075Y8834D01*
X18075Y8834D01*
X18075Y8834D01*
X18075Y8835D01*
X18075Y8835D01*
X18075Y8835D01*
X18076Y8835D01*
X18076Y8835D01*
X18076Y8835D01*
X18077Y8835D01*
X18078Y8836D01*
X18079Y8836D01*
X18080Y8837D01*
X18082Y8837D01*
X18086Y8839D01*
X18087Y8840D01*
X18090Y8841D01*
X18092Y8841D01*
X18092Y8842D01*
X18093Y8842D01*
X18096Y8843D01*
X18097Y8844D01*
X18099Y8845D01*
X18101Y8845D01*
X18104Y8847D01*
X18106Y8847D01*
X18109Y8849D01*
X18109Y8849D01*
X18121Y8854D01*
X18125Y8855D01*
X18135Y8859D01*
X18137Y8860D01*
X18143Y8863D01*
X18146Y8864D01*
X18146Y8864D01*
X18154Y8867D01*
X18158Y8869D01*
X18166Y8872D01*
X18168Y8873D01*
X18170Y8874D01*
X18181Y8878D01*
X18182D01*
X18187D01*
X18188D01*
X18188D01*
X18198D01*
X18200D01*
X18209Y8878D01*
X18210D01*
X18226Y8878D01*
X18228D01*
X18234Y8878D01*
X18234D01*
X18246D01*
X18249D01*
X18260D01*
X18283D01*
X18287D01*
X18287D01*
X18296D01*
X18298D01*
X18298D01*
X18298D01*
X18302D01*
X18310D01*
X18318D01*
X18320D01*
X18360D01*
X18363D01*
X18380D01*
X18425D01*
X29792D01*
X29826D01*
X29843D01*
X29853D01*
X29881D01*
X29882D01*
X29915D01*
X29932D01*
X29932D01*
X29943D01*
X29947D01*
X29950D01*
X29950D01*
X30019D01*
X30070D01*
X30070D01*
X30103D01*
X30113D01*
X30139Y8878D01*
X30139Y8878D01*
X30139D01*
X30139D01*
D01*
X30139D01*
X30139Y8878D01*
X30174Y8893D01*
X30175Y8893D01*
X30177Y8894D01*
X30205Y8906D01*
X30222Y8913D01*
X30230Y8916D01*
X30231Y8916D01*
X30245Y8922D01*
X30254Y8926D01*
X30254Y8926D01*
X30258Y8928D01*
X30278Y8936D01*
X30278Y8936D01*
X30282Y8938D01*
X30302Y8946D01*
X30331Y8958D01*
X30332Y8959D01*
X30369Y8974D01*
X30369D01*
Y8974D01*
X30369D01*
X30369Y8974D01*
X30383Y8988D01*
X30393Y8998D01*
X30416Y9021D01*
X30450Y9055D01*
X30496Y9101D01*
X30497Y9102D01*
X30499Y9104D01*
X30502Y9107D01*
X30512Y9117D01*
X30512Y9117D01*
X30524Y9129D01*
X30547Y9152D01*
X30548Y9153D01*
X30568Y9173D01*
X30579Y9184D01*
X30587Y9192D01*
X30609Y9214D01*
X32324Y10929D01*
X32339Y10944D01*
X32355Y10960D01*
X32369Y10974D01*
X32402Y11007D01*
X32416Y11021D01*
X32437Y11042D01*
X32449Y11054D01*
X32458Y11063D01*
X32464Y11069D01*
X32472D01*
X32491Y11069D01*
X32491Y11069D01*
X32492Y11069D01*
X32494D01*
X32494Y11069D01*
X32497Y11069D01*
X32503D01*
X32510D01*
X32526D01*
X32602Y11069D01*
X32602Y11069D01*
X32602D01*
X32602D01*
X32992D01*
Y12056D01*
X32992D01*
X32961Y12087D01*
X32961D01*
X32823Y12225D01*
Y13697D01*
Y13699D01*
Y13713D01*
Y13735D01*
Y13747D01*
Y13757D01*
Y13803D01*
Y13823D01*
Y13852D01*
Y13870D01*
Y13878D01*
Y13883D01*
X32823Y13888D01*
X32823Y13889D01*
X32823Y13891D01*
X32828Y13894D01*
X32876Y13916D01*
X32876Y13917D01*
X32876Y13917D01*
X32876Y13917D01*
X32876Y13917D01*
X32876Y13918D01*
X32876Y13918D01*
X32876Y13918D01*
X32877Y13918D01*
X32880Y13925D01*
X32880Y13927D01*
X32880Y13927D01*
X32883Y13933D01*
X32883Y13933D01*
X32885Y13938D01*
X32890Y13949D01*
X32900Y13975D01*
X32913Y14006D01*
Y14006D01*
X33032Y14294D01*
Y14294D01*
X32888Y14644D01*
X32888D01*
X32876Y14672D01*
X32498Y14828D01*
D02*
G37*
%LPD*%
D10*
X55541Y2539D02*
D03*
X1949Y2598D02*
D03*
X55482Y27028D02*
D03*
X1890Y27156D02*
D03*
D11*
X4048Y11853D02*
D03*
Y13822D02*
D03*
D12*
X20098Y18653D02*
D03*
Y14716D02*
D03*
X26548Y14294D02*
D03*
Y7444D02*
D03*
X32498Y14294D02*
D03*
Y7444D02*
D03*
D13*
X14098Y13803D02*
D03*
D14*
Y19567D02*
D03*
D15*
X9248Y18396D02*
D03*
X40500Y7403D02*
D03*
D16*
X9248Y13810D02*
D03*
D17*
X26548Y18412D02*
D03*
Y11562D02*
D03*
X32498Y18412D02*
D03*
Y11562D02*
D03*
D18*
X43298Y11853D02*
D03*
X40498Y16253D02*
D03*
X17998Y9203D02*
D03*
D19*
X38698Y11853D02*
D03*
X13398Y9203D02*
D03*
D20*
X49748Y9903D02*
D03*
Y6903D02*
D03*
D21*
X55698Y13453D02*
D03*
D22*
Y13953D02*
D03*
D23*
X43296Y7403D02*
D03*
D24*
X49748Y16503D02*
D03*
Y17503D02*
D03*
D25*
X40498Y18423D02*
D03*
D26*
X49748Y6903D02*
X51736D01*
X55698Y10865D01*
X39050Y5953D02*
X40500Y7403D01*
X33989Y5953D02*
X39050D01*
X55698Y10865D02*
Y13453D01*
X41831Y17569D02*
X49682D01*
X40515Y16253D02*
X41831Y17569D01*
X49748Y17503D02*
X52148D01*
X55698Y13953D01*
X49748Y9903D02*
Y16503D01*
X40498Y16253D02*
X40515D01*
X4048Y11853D02*
X6698Y9203D01*
X13398D01*
X24641Y16201D02*
X26548Y14294D01*
X14258Y13963D02*
X14258Y13963D01*
X14304Y13917D01*
X21583Y16201D02*
X24641D01*
X20098Y14716D02*
X21583Y16201D01*
X19185Y13803D02*
X20098Y14716D01*
X14098Y13803D02*
X19185D01*
X19184Y19567D02*
X20098Y18653D01*
X14098Y19567D02*
X19184D01*
X10419D02*
X14098D01*
X9248Y18396D02*
X10419Y19567D01*
X38648Y11953D02*
X38748Y11853D01*
X26548Y7444D02*
X32498D01*
X33989Y5953D01*
X40500Y7403D02*
Y16251D01*
X40498Y16253D02*
X40500Y16251D01*
X26548Y11562D02*
Y14294D01*
X14098Y13803D02*
X14258Y13963D01*
X26548Y18412D02*
X32498D01*
X35439Y21353D01*
X38648D01*
X40498Y19503D01*
Y18423D02*
Y19503D01*
X38648Y11953D02*
Y16573D01*
X40498Y18423D01*
X17998Y9203D02*
X30139D01*
X32498Y11562D01*
Y14294D01*
X43296Y7403D02*
X43298Y7406D01*
Y11853D01*
X43296Y7156D02*
Y7403D01*
Y7156D02*
X44748Y5703D01*
X48548D01*
X49748Y6903D01*
X4048Y13822D02*
X4060Y13810D01*
X9248D01*
M02*
