%FSLAX24Y24*%
%MOIN*%
G70*
G01*
G75*
G04 Layer_Color=8388736*
%ADD10C,0.2362*%
%ADD11C,0.0630*%
%ADD12C,0.0787*%
%ADD13C,0.0627*%
%ADD14R,0.0627X0.0627*%
%ADD15C,0.0591*%
%ADD16R,0.0591X0.0591*%
%ADD17R,0.0787X0.0787*%
%ADD18C,0.0540*%
%ADD19R,0.0540X0.0540*%
%ADD20C,0.0551*%
%ADD21R,0.0394X0.0394*%
%ADD22C,0.0394*%
%ADD23R,0.0591X0.0591*%
%ADD24C,0.0480*%
%ADD25R,0.0540X0.0540*%
%ADD26C,0.0400*%
%ADD27C,0.0200*%
%ADD28C,0.0060*%
%ADD29C,0.0100*%
%ADD30C,0.0079*%
%ADD31C,0.0197*%
%ADD32C,0.0030*%
%ADD33R,0.1102X0.0315*%
%ADD34R,0.0315X0.0748*%
%ADD35C,0.2442*%
%ADD36C,0.0867*%
%ADD37C,0.0671*%
%ADD38R,0.0671X0.0671*%
%ADD39R,0.0867X0.0867*%
%ADD40C,0.0631*%
%ADD41R,0.0474X0.0474*%
%ADD42C,0.0474*%
%ADD43R,0.0671X0.0671*%
D11*
X4048Y11853D02*
D03*
Y13822D02*
D03*
D13*
X14098Y13803D02*
D03*
D14*
Y19567D02*
D03*
D18*
X43298Y11853D02*
D03*
X40498Y16253D02*
D03*
X17998Y9203D02*
D03*
D19*
X38698Y11853D02*
D03*
X13398Y9203D02*
D03*
D24*
X49748Y16503D02*
D03*
Y17503D02*
D03*
D25*
X40498Y18423D02*
D03*
D35*
X55541Y2539D02*
D03*
X1949Y2598D02*
D03*
X55482Y27028D02*
D03*
X1890Y27156D02*
D03*
D36*
X20098Y18653D02*
D03*
Y14716D02*
D03*
X26548Y14294D02*
D03*
Y7444D02*
D03*
X32498Y14294D02*
D03*
Y7444D02*
D03*
D37*
X9248Y18396D02*
D03*
X40500Y7403D02*
D03*
D38*
X9248Y13810D02*
D03*
D39*
X26548Y18412D02*
D03*
Y11562D02*
D03*
X32498Y18412D02*
D03*
Y11562D02*
D03*
D40*
X49748Y9903D02*
D03*
Y6903D02*
D03*
D41*
X55698Y13453D02*
D03*
D42*
Y13953D02*
D03*
D43*
X43296Y7403D02*
D03*
M02*
