%FSLAX44Y44*%
%MOMM*%
G71*
G01*
G75*
G04 Layer_Color=255*
%ADD10C,6.0000*%
%ADD11C,1.6002*%
%ADD12C,2.0000*%
%ADD13C,1.5920*%
%ADD14R,1.5920X1.5920*%
%ADD15C,1.5000*%
%ADD16R,1.5000X1.5000*%
%ADD17R,2.0000X2.0000*%
%ADD18C,1.3716*%
%ADD19R,1.3716X1.3716*%
%ADD20C,1.4000*%
%ADD21R,1.0000X1.0000*%
%ADD22C,1.0000*%
%ADD23R,1.5000X1.5000*%
%ADD24C,1.2192*%
%ADD25R,1.3716X1.3716*%
D10*
X1410750Y64500D02*
D03*
X49500Y66000D02*
D03*
X1409250Y686500D02*
D03*
X48000Y689750D02*
D03*
D11*
X102820Y301070D02*
D03*
Y351070D02*
D03*
D12*
X510490Y473790D02*
D03*
Y373790D02*
D03*
X674320Y363070D02*
D03*
Y189080D02*
D03*
X825450Y363070D02*
D03*
Y189080D02*
D03*
D13*
X358090Y350600D02*
D03*
D14*
Y497000D02*
D03*
D15*
X234900Y467270D02*
D03*
X1028710Y188040D02*
D03*
D16*
X234900Y350770D02*
D03*
D17*
X674320Y467670D02*
D03*
Y293680D02*
D03*
X825450Y467670D02*
D03*
Y293680D02*
D03*
D18*
X1099770Y301070D02*
D03*
X1028650Y412830D02*
D03*
X457150Y233760D02*
D03*
D19*
X982930Y301070D02*
D03*
X340310Y233760D02*
D03*
D20*
X1263600Y251540D02*
D03*
Y175340D02*
D03*
D21*
X1414730Y341710D02*
D03*
D22*
Y354410D02*
D03*
D23*
X1099710Y188040D02*
D03*
D24*
X1263600Y419180D02*
D03*
Y444580D02*
D03*
D25*
X1028650Y467948D02*
D03*
M02*
