%FSLAX24Y24*%
%MOIN*%
G70*
G01*
G75*
G04 Layer_Color=65535*
%ADD10C,0.2362*%
%ADD11C,0.0630*%
%ADD12C,0.0787*%
%ADD13C,0.0627*%
%ADD14R,0.0627X0.0627*%
%ADD15C,0.0591*%
%ADD16R,0.0591X0.0591*%
%ADD17R,0.0787X0.0787*%
%ADD18C,0.0540*%
%ADD19R,0.0540X0.0540*%
%ADD20C,0.0551*%
%ADD21R,0.0394X0.0394*%
%ADD22C,0.0394*%
%ADD23R,0.0591X0.0591*%
%ADD24C,0.0480*%
%ADD25R,0.0540X0.0540*%
%ADD26C,0.0400*%
%ADD27C,0.0200*%
%ADD28C,0.0060*%
%ADD29C,0.0100*%
%ADD30C,0.0079*%
%ADD31C,0.0197*%
%ADD32C,0.0030*%
%ADD33R,0.1102X0.0315*%
%ADD34R,0.0315X0.0748*%
D27*
X2198Y13853D02*
G03*
X2198Y13853I-150J0D01*
G01*
D28*
X50092Y16365D02*
G03*
X50092Y17641I-344J638D01*
G01*
X49404D02*
G03*
X49404Y16365I344J-638D01*
G01*
X43008Y17338D02*
G03*
X43008Y17338I-2510J0D01*
G01*
X2378Y14857D02*
X5708D01*
Y10817D02*
Y14857D01*
X2378Y10817D02*
X5708D01*
X2378D02*
Y14857D01*
X13556Y18310D02*
X14640D01*
Y15060D02*
Y18310D01*
X13556Y15060D02*
X14640D01*
X13556D02*
Y18310D01*
X13848Y20230D02*
X14348D01*
X14098Y20011D02*
Y20480D01*
X39608Y11288D02*
Y12418D01*
X42388D01*
Y11288D02*
Y12418D01*
X39608Y11288D02*
X42388D01*
X38078Y11603D02*
Y12103D01*
X37828Y11853D02*
X38297D01*
X49498Y17928D02*
X49998D01*
X49698D02*
X49748Y18228D01*
X49648Y17928D02*
X49748Y18228D01*
X49598Y17928D02*
X49748Y18228D01*
X49548Y17928D02*
X49748Y18228D01*
X49498Y17928D02*
X49748Y18228D01*
X49798Y17928D01*
X49748Y18228D02*
X49848Y17928D01*
X49748Y18228D02*
X49898Y17928D01*
X49748Y18228D02*
X49948Y17928D01*
X49748Y18228D02*
X49998Y17928D01*
X49498Y18228D02*
X49998D01*
X49748Y17874D02*
Y18328D01*
X40248Y20148D02*
X40748D01*
X40498Y19898D02*
Y20398D01*
X14308Y8638D02*
Y9768D01*
X17088D01*
Y8638D02*
Y9768D01*
X14308Y8638D02*
X17088D01*
X12778Y8953D02*
Y9453D01*
X12528Y9203D02*
X12997D01*
D29*
X20118Y19244D02*
X21181D01*
Y14126D02*
Y19244D01*
X19015Y14126D02*
X21181D01*
X19015D02*
Y19244D01*
X20118D01*
X53845Y14009D02*
X53779Y14075D01*
X53648D01*
X53583Y14009D01*
Y13747D01*
X53648Y13681D01*
X53779D01*
X53845Y13747D01*
Y13878D01*
X53714D01*
X53976Y13681D02*
Y14075D01*
X54239Y13681D01*
Y14075D01*
X54370D02*
Y13681D01*
X54567D01*
X54632Y13747D01*
Y14009D01*
X54567Y14075D01*
X54370D01*
X56467Y13292D02*
X56866D01*
X56666Y13492D02*
Y13092D01*
X4170Y16456D02*
X3970D01*
X4070D01*
Y15956D01*
X3970Y15856D01*
X3870D01*
X3770Y15956D01*
X4369Y15856D02*
X4569D01*
X4469D01*
Y16456D01*
X4369Y16356D01*
X13748Y21353D02*
Y21953D01*
X14048D01*
X14148Y21853D01*
Y21653D01*
X14048Y21553D01*
X13748D01*
X13948D02*
X14148Y21353D01*
X14348D02*
X14548D01*
X14448D01*
Y21953D01*
X14348Y21853D01*
X20148Y21153D02*
X20048Y21253D01*
X19848D01*
X19748Y21153D01*
Y20753D01*
X19848Y20653D01*
X20048D01*
X20148Y20753D01*
X20348Y20653D02*
X20548D01*
X20448D01*
Y21253D01*
X20348Y21153D01*
X7841Y19950D02*
X7441D01*
Y19650D01*
X7641D01*
X7441D01*
Y19350D01*
X8041D02*
X8241D01*
X8141D01*
Y19950D01*
X8041Y19850D01*
X24734Y19576D02*
Y18976D01*
X25034D01*
X25134Y19076D01*
Y19476D01*
X25034Y19576D01*
X24734D01*
X25734Y18976D02*
X25334D01*
X25734Y19376D01*
Y19476D01*
X25634Y19576D01*
X25434D01*
X25334Y19476D01*
X24898Y12853D02*
Y12253D01*
X25198D01*
X25298Y12353D01*
Y12753D01*
X25198Y12853D01*
X24898D01*
X25498Y12253D02*
X25698D01*
X25598D01*
Y12853D01*
X25498Y12753D01*
X41929Y13317D02*
Y13917D01*
X42229D01*
X42329Y13817D01*
Y13617D01*
X42229Y13517D01*
X41929D01*
X42129D02*
X42329Y13317D01*
X42929D02*
X42529D01*
X42929Y13717D01*
Y13817D01*
X42829Y13917D01*
X42629D01*
X42529Y13817D01*
X47106Y9882D02*
Y10482D01*
X47406D01*
X47506Y10382D01*
Y10182D01*
X47406Y10082D01*
X47106D01*
X47306D02*
X47506Y9882D01*
X47706Y10382D02*
X47806Y10482D01*
X48006D01*
X48106Y10382D01*
Y10282D01*
X48006Y10182D01*
X47906D01*
X48006D01*
X48106Y10082D01*
Y9982D01*
X48006Y9882D01*
X47806D01*
X47706Y9982D01*
X30610Y19655D02*
Y19055D01*
X30910D01*
X31010Y19155D01*
Y19555D01*
X30910Y19655D01*
X30610D01*
X31510Y19055D02*
Y19655D01*
X31210Y19355D01*
X31610D01*
X30548Y12803D02*
Y12203D01*
X30848D01*
X30948Y12303D01*
Y12703D01*
X30848Y12803D01*
X30548D01*
X31148Y12703D02*
X31248Y12803D01*
X31448D01*
X31548Y12703D01*
Y12603D01*
X31448Y12503D01*
X31348D01*
X31448D01*
X31548Y12403D01*
Y12303D01*
X31448Y12203D01*
X31248D01*
X31148Y12303D01*
X55198Y15003D02*
Y15603D01*
X55498D01*
X55598Y15503D01*
Y15303D01*
X55498Y15203D01*
X55198D01*
X56198Y15003D02*
X55798D01*
X56198Y15403D01*
Y15503D01*
X56098Y15603D01*
X55898D01*
X55798Y15503D01*
X41280Y9488D02*
Y8888D01*
X41579D01*
X41679Y8988D01*
Y9388D01*
X41579Y9488D01*
X41280D01*
X42279D02*
X41879D01*
Y9188D01*
X42079Y9288D01*
X42179D01*
X42279Y9188D01*
Y8988D01*
X42179Y8888D01*
X41979D01*
X41879Y8988D01*
X49298Y19753D02*
Y19153D01*
X49698D01*
X50298Y19753D02*
X49898D01*
Y19153D01*
X50298D01*
X49898Y19453D02*
X50098D01*
X50498Y19753D02*
Y19153D01*
X50798D01*
X50898Y19253D01*
Y19653D01*
X50798Y19753D01*
X50498D01*
X43398Y20303D02*
X43298Y20403D01*
X43098D01*
X42998Y20303D01*
Y19903D01*
X43098Y19803D01*
X43298D01*
X43398Y19903D01*
X43998Y19803D02*
X43598D01*
X43998Y20203D01*
Y20303D01*
X43898Y20403D01*
X43698D01*
X43598Y20303D01*
X15198Y10453D02*
Y11053D01*
X15498D01*
X15598Y10953D01*
Y10753D01*
X15498Y10653D01*
X15198D01*
X15398D02*
X15598Y10453D01*
X16098D02*
Y11053D01*
X15798Y10753D01*
X16198D01*
D30*
X9799Y15060D02*
Y17146D01*
X8697Y15060D02*
Y17146D01*
Y15060D02*
X9799D01*
X8697Y17146D02*
X9799D01*
X27099Y15310D02*
Y17396D01*
X25997Y15310D02*
Y17396D01*
Y15310D02*
X27099D01*
Y8460D02*
Y10546D01*
X25997Y8460D02*
Y10546D01*
Y8460D02*
X27099D01*
X49448Y9403D02*
X49748D01*
X49448Y7403D02*
Y9403D01*
Y7403D02*
X50048D01*
Y9403D01*
X49748D02*
X50048D01*
X49748Y7313D02*
Y7403D01*
Y9403D02*
Y9493D01*
X33049Y15310D02*
Y17396D01*
X31947Y15310D02*
Y17396D01*
Y15310D02*
X33049D01*
Y8460D02*
Y10546D01*
X31947Y8460D02*
Y10546D01*
Y8460D02*
X33049D01*
X56052Y13099D02*
Y14307D01*
X55344Y13099D02*
X56052D01*
X55344D02*
Y14307D01*
X56052D01*
X41130Y7029D02*
Y7777D01*
X42666D01*
X41130Y7029D02*
X42666D01*
D31*
X12953Y26181D02*
X12165D01*
Y25590D01*
X12559D01*
X12165D01*
Y25000D01*
X13346Y25787D02*
Y25197D01*
X13543Y25000D01*
X14133D01*
Y25787D01*
X15117Y25000D02*
X14724D01*
X14527Y25197D01*
Y25590D01*
X14724Y25787D01*
X15117D01*
X15314Y25590D01*
Y25394D01*
X14527D01*
X15708Y25000D02*
Y25787D01*
X16298D01*
X16495Y25590D01*
Y25000D01*
X17085Y25984D02*
Y25787D01*
X16888D01*
X17282D01*
X17085D01*
Y25197D01*
X17282Y25000D01*
X18463D02*
X18069D01*
X17872Y25197D01*
Y25590D01*
X18069Y25787D01*
X18463D01*
X18659Y25590D01*
Y25394D01*
X17872D01*
X21021Y25984D02*
X20824Y26181D01*
X20430D01*
X20234Y25984D01*
Y25197D01*
X20430Y25000D01*
X20824D01*
X21021Y25197D01*
X21611Y25787D02*
X22005D01*
X22201Y25590D01*
Y25000D01*
X21611D01*
X21414Y25197D01*
X21611Y25394D01*
X22201D01*
X22595Y24606D02*
Y25787D01*
X23185D01*
X23382Y25590D01*
Y25197D01*
X23185Y25000D01*
X22595D01*
X23973Y25787D02*
X24366D01*
X24563Y25590D01*
Y25000D01*
X23973D01*
X23776Y25197D01*
X23973Y25394D01*
X24563D01*
X25744Y25787D02*
X25153D01*
X24956Y25590D01*
Y25197D01*
X25153Y25000D01*
X25744D01*
X26137D02*
X26531D01*
X26334D01*
Y25787D01*
X26137D01*
X27318Y25984D02*
Y25787D01*
X27121D01*
X27515D01*
X27318D01*
Y25197D01*
X27515Y25000D01*
X28105D02*
X28499D01*
X28302D01*
Y25787D01*
X28105D01*
X29089D02*
X29483Y25000D01*
X29876Y25787D01*
X30467D02*
X30860D01*
X31057Y25590D01*
Y25000D01*
X30467D01*
X30270Y25197D01*
X30467Y25394D01*
X31057D01*
X34402Y25000D02*
X34009D01*
X33812Y25197D01*
Y25590D01*
X34009Y25787D01*
X34402D01*
X34599Y25590D01*
Y25394D01*
X33812D01*
X35780Y25787D02*
X35189D01*
X34993Y25590D01*
Y25197D01*
X35189Y25000D01*
X35780D01*
X36173D02*
Y25787D01*
X36370D01*
X36567Y25590D01*
Y25000D01*
Y25590D01*
X36764Y25787D01*
X36960Y25590D01*
Y25000D01*
X37354D02*
X37748D01*
X37551D01*
Y26181D01*
X37354Y25984D01*
X39125Y26181D02*
X38732Y25984D01*
X38338Y25590D01*
Y25197D01*
X38535Y25000D01*
X38928D01*
X39125Y25197D01*
Y25394D01*
X38928Y25590D01*
X38338D01*
X39519Y25984D02*
X39715Y26181D01*
X40109D01*
X40306Y25984D01*
Y25787D01*
X40109Y25590D01*
X39912D01*
X40109D01*
X40306Y25394D01*
Y25197D01*
X40109Y25000D01*
X39715D01*
X39519Y25197D01*
D32*
X3798Y11015D02*
Y11348D01*
X4131Y11015D01*
X4215D01*
X4298Y11098D01*
Y11265D01*
X4215Y11348D01*
X3798Y11015D02*
Y11348D01*
X4131Y11015D01*
X4215D01*
X4298Y11098D01*
Y11265D01*
X4215Y11348D01*
X3798Y14577D02*
Y14410D01*
Y14493D01*
X4298D01*
X4215Y14577D01*
X3798D02*
Y14410D01*
Y14493D01*
X4298D01*
X4215Y14577D01*
D33*
X26548Y17278D02*
D03*
Y10428D02*
D03*
X32498Y17278D02*
D03*
Y10428D02*
D03*
D34*
X42548Y7403D02*
D03*
M02*
